<?xml version="1.0" encoding="utf-8"?>
<!-- Generator: Adobe Illustrator 19.1.0, SVG Export Plug-In . SVG Version: 6.00 Build 0)  -->
<svg version="1.1" id="Layer_1" xmlns="http://www.w3.org/2000/svg" xmlns:xlink="http://www.w3.org/1999/xlink" x="0px" y="0px"
	 width="300px" height="300px" viewBox="0 0 300 300" style="enable-background:new 0 0 300 300;" xml:space="preserve">
<style type="text/css">
	.st0{fill:none;}
	.st1{fill:url(#SVGID_1_);}
	.st2{fill:#3BB0C9;}
</style>
<path class="st0" d="M86.9,37.8c9.3,0,16.8-7.6,16.8-16.8c0-9.3-7.6-16.8-16.8-16.8S70.1,11.7,70.1,21
	C70.1,30.2,77.6,37.8,86.9,37.8z"/>
<linearGradient id="SVGID_1_" gradientUnits="userSpaceOnUse" x1="2.8457" y1="150" x2="297.1543" y2="150">
	<stop  offset="0" style="stop-color:#3BB0C9"/>
	<stop  offset="1" style="stop-color:#58595B"/>
</linearGradient>
<path class="st1" d="M150,4.3c-0.8,0-1.4,0.6-1.4,1.4s0.6,1.4,1.4,1.4c79.6,0,144.4,64.8,144.4,144.4S229.6,295.9,150,295.9
	S5.6,231.1,5.6,151.5c0-48.6,24.1-93.5,64.6-120.3c3.4,5.6,9.6,9.4,16.7,9.4c10.8,0,19.6-8.8,19.6-19.6c0-10.8-8.8-19.6-19.6-19.6
	S67.3,10.2,67.3,21c0,2.7,0.6,5.4,1.6,7.7C27.5,56.1,2.8,101.9,2.8,151.5c0,81.1,66,147.2,147.2,147.2s147.2-66,147.2-147.2
	S231.1,4.3,150,4.3z M86.9,4.1c9.3,0,16.8,7.6,16.8,16.8c0,9.3-7.6,16.8-16.8,16.8S70.1,30.2,70.1,21C70.1,11.7,77.6,4.1,86.9,4.1z"
	/>
<circle class="st2" cx="86.9" cy="21" r="12.6"/>
</svg>
