<?xml version="1.0" encoding="utf-8"?>
<!-- Generator: Adobe Illustrator 19.1.0, SVG Export Plug-In . SVG Version: 6.00 Build 0)  -->
<svg version="1.1" id="Layer_1" xmlns="http://www.w3.org/2000/svg" xmlns:xlink="http://www.w3.org/1999/xlink" x="0px" y="0px"
	 width="300px" height="240px" viewBox="0 0 300 240" style="enable-background:new 0 0 300 240;" xml:space="preserve">
<style type="text/css">
	.st0{fill:#666766;}
</style>
<path class="st0" d="M212.1,114.2c0.3,1.7,0.9,3.2,1.5,3.9c0.1,0.9,0,1.6-0.4,2.4c0.7,0.6-0.3,1.3,0.1,1.9c0.8,0.3,1.4,0.9,1.9,1.5
	c-0.2,0.3,0.2,0.5,0.2,0.7c0.1,1.1,0.5,2,1.1,3c0.1,0.1,0.1,0.3,0.3,0.4c0.5,0.4,1,0.7,1.5,1.1c0.2,0.2,0.4,0.2,0.7-0.1
	c-0.3-0.9-0.5-1.8-0.8-2.7c-0.2-0.4-0.2-0.9-0.6-1.2c-0.6-0.4-1-1.1-1.6-1.4c-0.8-0.4-0.8-1.1-1.1-1.8c0,0-0.1-0.1-0.1-0.1
	c-0.5-0.5-0.8-1-0.5-1.9c0.2-0.6,0.6-1.3,0.1-2c-0.2-0.3,0-0.7,0.4-0.8c0.9,0.2,1.3,1,2.1,1.4c0.8,0.3,1.1,1.3,1.7,2
	c0.1-0.4,0.5-0.3,0.7-0.5c0.1,0.2,0.2,0.4,0.3,0.6c0.1,0.2-0.1,0.4-0.2,0.7c-0.1,0.3,0.1,0.5,0.3,0.7c0.4-0.5,1.2-0.7,1.2-1.4
	c0.4-0.2,0.6-0.3,0.9-0.5c0.3-0.1,0.6-0.2,0.9-0.4c-0.2-0.3,0.2-0.3,0.2-0.6c0-0.2,0.3-0.4,0.2-0.7c-0.2-0.7-0.2-1.4-0.5-2.1
	c-0.2-0.4-0.4-0.9-0.6-1.3c-0.3-0.6-0.7-1.1-1.2-1.4c-1-0.5-1.4-1.4-1.9-2.2c0-0.4,0.3-0.7,0.3-1c0.6-0.9,1.4-1.3,2.3-1.5
	c0.3,0.1,0.6,0.2,0.9,0.5c0,0.3,0,0.6,0.4,0.8c0.4-0.9,1.2-1.4,2.1-1.7c0.3,0.2,0.6,0.2,0.9,0.1c0.6-0.2,1.1-0.4,1.7-0.6
	c0.7-0.2,1.4-0.4,1.7-1.2c0-0.1,0.1-0.1,0.2-0.2c0.6-0.4,0.8-1.1,1-1.7c0.1-0.3,0.1-0.6,0.2-0.9c0.3-0.9,0.5-1.9,0.7-2.8
	c-0.2-0.2-0.4-0.4-0.7-0.4c-0.2,0.1-0.4,0-0.6-0.2c-0.1-0.1-0.1-0.1,0-0.2c0.1-0.2,0.4-0.2,0.6-0.4c-0.2-0.6-0.2-0.6-0.7-0.9
	c-0.8-0.4-1.2-1.1-1.5-1.8c-0.1-0.2-0.2-0.5-0.3-0.7c-0.4-0.1-0.8-0.3-1.1-0.7c0.3-0.4,0.2-1,0.7-1.4c0.4-0.3,1-0.5,1.3-0.9
	c-0.6-0.4-1.2-0.3-1.8-0.6c-0.3,0.3-0.5,0.5-0.7,0.7c-0.7-0.7-1.9-0.8-2.4-1.9c1.1-0.3,1.6-1.3,2.3-2c0,0,0.1,0,0.1,0
	c0.2,0.1,0.5,0.3,0.7,0.5c0,0.6,0.1,1.1,0.5,1.5c0.5-0.3,1-0.6,1.4-0.9c0.6,0.4,1.3,0.5,1.6,1.1c0,0.2-0.3,0.3-0.2,0.5
	c0.1,0.2,0.2,0.4,0.5,0.4c1.1,0,1.7,0.7,2.1,1.6c0.3,0.6,0.6,1.3,0.9,1.9c0.6-0.3,1.3-0.6,1.9-1c-0.1-0.7-0.6-1.2-0.7-1.6
	c-1-1.1-2.3-1.5-3.1-2.4c0.3-0.6,0.8-0.6,1.1-0.8c-0.1-0.3,0.3-0.3,0.2-0.6c0-0.3-0.5-0.3-0.4-0.7c0.2-0.3,0.3-0.6,0.6-0.9
	c0.2-0.2,0-0.7,0.5-0.8c0.3,0.3,0.8,0.2,1.1,0.4c0.4-0.2,0.8-0.4,1.1-0.8c0-0.3,0.1-0.5,0.2-0.7c0.2-0.9,1-1.8,0.5-2.8
	c-0.1-0.2-0.1-0.5,0-0.6c0.3-0.3,0.3-0.7,0.1-1c-0.2-0.3,0.1-0.8-0.3-1.1c-0.1-0.1-0.2-0.4-0.3-0.4c-0.7-0.2-0.9-0.7-1.1-1.3
	c-0.2-0.5-0.5-0.9-0.9-1.1c-0.3-0.2-0.5-0.4-0.7-0.6c-0.3-0.3-0.6-0.6-1.2-0.6c-0.2,0.2-0.6,0.3-0.9,0.5c-1-0.3-2-0.5-2.8-1.2
	c0.9-0.8,0.8-1.9,1.1-2.8c0.4-0.4,0.7-0.7,1-1c0.5-0.1,1-0.2,1.5-0.3c0.3,0,0.5,0.2,0.8,0.3c0.7,0.1,1.3-0.2,1.9-0.3
	c0.4-0.1,0.6-0.2,1,0c0.3,0.2,0.7,0.2,0.9,0.3c0.4,0.2,0.7,0.3,1,0c0.2-0.2,0.5,0.1,0.7-0.3c-0.5-0.8-0.1-1.5,0.3-2.2
	c1.1,0,2,0.2,2.7,0.9c0.4,0.1,0.6-0.1,0.7-0.4c0-0.3-0.4-0.3-0.1-0.7c0-0.3,0.5-0.1,0.7-0.4c0.6,0.4,0.9,1,1.2,1.6
	c-0.2,0.4-0.4,0.7-0.6,1.2c0,0.3,0,0.7,0,0.9c-0.2,0.4-0.4,0.8-0.6,1.2c0.4,0.7,0.9,1.3,1.4,1.9c0.4,0.5,0.9,1,1.4,1.4
	c0.7,0.6,1.6,1,2,2c0.1,0.2,0.2,0.3,0.2,0.3c0.6,0.1,0.9-0.2,1.2-0.3c0-0.5-0.8-0.9-0.2-1.5c-0.2-0.2-0.4-0.6-0.4-0.7
	c0.1-0.5,0.4-0.5,0.6-0.6c-0.4-0.6-0.8-1.2-0.9-1.9c0-0.1-0.1-0.3-0.3-0.3c-0.6-0.3-1-0.8-1.7-0.8c-0.3-0.5-0.6-0.9-0.9-1.4
	c0.3-0.3,0.5-0.5,0.9-0.6c0.7-0.2,1.5-0.4,2.1-0.9c0.5,0.2,0.9,0.5,1.3,0.7c0.2-0.2,0.4-0.5,0.7-0.5c0.1-0.8,0.7-1,1.3-1.3
	c0.4-0.2,0.9-0.2,1.3,0.1c0-0.3,0.6,0,0.5-0.5c-0.6-0.4-1.5-0.4-2.1-0.8c-0.6-0.5-1.5-0.3-2.1-1c0.6-0.4,0.6-0.4,1.1-0.2
	c0.1,0.1,0.3,0.1,0.4,0.1c0.1,0,0.2,0,0.3-0.2c-0.2-0.2-0.4-0.4-0.7-0.6c0.1-0.1,0.2-0.2,0.2-0.2c0.5-0.1,0.8,0.2,1.2,0.2
	c0.3,0,0.7,0.3,1,0.4c0.2-0.1,0.2-0.3,0.5-0.2c0.3,0.4,1,0.4,1.5,0.7c0.7,0.3,1.2,0.1,1.7-0.1c-0.9-0.5-1.4-1.5-2.5-1.7
	c-0.4,0.1-0.8,0.3-1.2,0.4c-0.4-0.2-0.7-0.5-1.2-0.6c-0.4-0.1-0.7-0.6-1.2-0.5c-0.5,0.1-0.9-0.3-1.3-0.2c-0.8,0.1-1.4-0.2-2.1-0.5
	c-0.4-0.2-0.8-0.4-1.3-0.4c-0.6,0-1.1-0.2-1.7-0.3c-1-0.2-1.9-0.4-2.9-0.4c-0.1,0-0.3,0.1-0.4,0c-0.5-0.4-1.1-0.1-1.8-0.2
	c0.3,0.3,0.6,0.5,0.8,0.7c-0.2,0.2-0.3,0.4-0.5,0.4c-0.4-0.1-0.7-0.5-1.2-0.5c-0.4-0.4-0.9-0.1-1.3-0.2c-1.1-0.3-1.1-0.2-2.1,0
	c-0.7,0.1-1.4,0.1-2.1-0.1c-0.8-0.2-1.4-0.5-2.1-0.8c-0.3-0.2-0.7-0.3-0.9-0.1c-0.3,0.2-0.5,0.1-0.8,0.1c-1.4,0-2.7-0.4-4.1-0.2
	c-0.3,0-0.6,0-0.9-0.2c-0.6-0.4-1.4-0.5-2-1c-0.5,0.4-0.9,0.4-1.3,0.1c-0.3-0.2-0.5-0.2-0.8-0.2c-0.2,0-0.5,0.1-0.7,0
	c-0.9-0.5-1.8-0.2-2.7,0.3c0.2,0.1,0.4,0.2,0.6,0.3c-0.4,0.5-1,0.5-1.4,0.9c-0.6-0.5-1.4-0.1-2-0.5c-0.1-0.1-0.4,0-0.6,0.1
	c-0.4,0.2-0.8,0.4-1.2,0.6c-0.7-0.4-1.5-0.6-2.1-1.1c-1.6-1.3-3.1-1.3-4.9-1c-0.9,0.2-1.7,0.3-2.5,0c-0.3-0.2-0.7,0-1-0.3
	c-0.4-0.4-0.7,0.3-1.1,0.1c0,0-0.1,0-0.1,0c-0.3,0-0.5,0.4-0.8,0.2c-0.2-0.2-0.5-0.2-0.8-0.3c-0.6-0.2-1.2-0.5-2-0.2
	c-0.6,0.2-1.3,0.3-1.9,0.5c-0.1-0.1-0.2-0.2-0.3-0.4c0.6-0.5,1.4-0.9,2.2-1.3c-0.2-0.6-0.9-0.5-1-1c-0.8,0.1-1.5-0.3-2.3-0.2
	c-0.7,0-1.4,0.5-2.2,0.2c-0.7-0.7-1.5-0.9-2.5-0.8c0.1-0.2,0.2-0.2,0.3-0.3c-1.3-0.2-2.5-0.7-3.9-0.5c-0.1-0.2-0.2-0.3-0.3-0.5
	c-0.6,0-1.1,0-1.6,0c-0.5-0.7-1.4-0.5-2.1-0.9c-0.2,0.2-0.5,0.2-0.8,0.3c-0.2,0.1-0.2,0.5-0.6,0.5c0.1,0.1,0.2,0.2,0.4,0.3
	c0.4,0,0.8,0.1,1.3,0c0.5-0.1,0.9,0.1,1.3,0.3c0.7,0.2,1.3,0.2,2,0.2c0.4,0,0.8,0,1.2,0c0.1,0,0.1,0,0.2,0.1
	c0.1,0.2-0.2,0.1-0.1,0.3c0.1,0.1,0.1,0.1,0.2,0.2c0,0.1-0.3,0.1-0.1,0.3c0.4,0.1,0.5-0.3,0.6-0.4c0.7,0,1.3,0,2,0
	c-0.2,0.9-1.2,0.9-1.4,1.5c-1,0.1-2-0.6-2.9,0c-1,0.1-2,0.2-2.9,0.5c-0.1,0.4,0.4,0.5,0.4,0.8c-0.2,0.3-0.6,0.4-0.9,0.5
	c-0.9-0.3-1.9-0.1-2.5,0.5c-0.6,0.7-1.4,0.9-2.2,1.3c-0.6-0.2-0.6-0.2-1.3-0.1c0.2,0.6,0.3,1.2,1.1,1.4c0.6,0.2,1.1,0.7,1.2,1.5
	c-0.5,0.1-0.1,0.6-0.4,0.9c-0.4,0.1-0.8,0.6-1.2,0.6c-0.3-0.2-0.5-0.2-0.6-0.3c0.3-0.5,0.6-0.9,0.9-1.3c-0.9-1.2-1.7-2.3-2.6-3.4
	c-0.4-0.5-0.9-0.8-1.6-0.3c-0.1,0.1-0.3,0-0.4,0c0,0.1,0.1,0.1,0.1,0.2c-0.3,0.3-0.6,0.5-0.9,0.8c0.4,0.2,0.3,0.7,0.6,1
	c0.6,0.4,1.4,0.4,1.9,1.1c-0.2,0.4-0.6,0.4-0.8,0.6c-0.3-0.3-0.6-0.5-1-0.6c-0.1,0.1-0.2,0.2-0.3,0.2c-0.1-0.1-0.3-0.3-0.4-0.4
	c-0.2,0-0.5,0.1-0.7,0c-1.2-0.3-2.4-0.6-3.6-1c-0.5-0.2-0.8-0.2-1.1,0.2c1.1,0.3,1.1,0.3,1.4,0.1c0.2,0.3,0.5,0.4,0.6,0.8
	c-0.1,0.1-0.2,0.2-0.3,0.3c-0.5-0.5-1.1,0.1-1.7,0c-0.7-0.1-1.2,0.4-1.9,0.2c-0.1-0.1-0.2-0.2-0.4-0.4c-0.8,0-1.7,0.2-2.4,0.5
	c-0.7,0.4-1.3,0.8-2.1,1c-0.1-0.3-0.7-0.1-0.7-0.6c0.1-0.1,0.1-0.1,0.2-0.2c-0.1-0.1-0.2-0.2-0.3-0.3c-0.3,0-0.7-0.1-1.1,0.1
	c0.2,0.4,0.4,0.7,0.6,1.1c-0.7,0.6-1.8,0.4-2.4,0.9c-0.2,0.3,0.1,0.3,0.1,0.5c-0.2,0.3-0.6,0.3-0.9,0.5c-0.5-0.2-0.9-0.6-1.6-0.4
	c0.4,0.3,0.9,0.3,1.1,0.7c-0.3,0.4-0.8,0.3-1.1,0.6c-0.5-0.3-0.8-0.5-1.2-0.7c-0.4-0.1-0.6-0.4-0.7-0.7c-0.2-0.6-0.6-1-1.2-1.1
	c-0.1,0-0.2-0.2-0.3-0.3c0.1-0.1,0.2-0.2,0.3-0.3c0.7-0.3,1.4,0.3,2.1,0.2c0.1,0,0.3,0.1,0.5,0.2c0.3,0.2,0.6,0.2,0.9,0.2
	c0.4,0,0.8,0,1.2,0c0.3-0.3,0.7-0.3,1-0.6c-0.3-0.1-0.1-0.4-0.3-0.5c-0.9-0.3-1.9-0.6-2.8-0.9c-0.9-0.2-1.7-0.7-2.5-0.2
	c-1.3-0.9-2.8-1.7-4.6-1.4c-0.2,0-0.4,0.1-0.5,0c-0.8-0.5-1.6,0-2.4,0.1c-0.7,0.1-1.2,0.7-1.9,0.7c-0.7,0.1-1.3,0.5-2,0.7
	c-0.3,0.4-0.3,0.9-0.9,1.1c-0.5,0.2-0.9,0.7-1.2,1.2c-0.3,0.6-0.6,1-1.1,1.3c-0.4,0.2-0.7,0.4-1,0.7c-0.3,0.3-0.8,0.6-1.2,0.6
	c-0.7,0-1.1,0.5-1.7,0.8c-0.3,0.1-0.4,0.6-0.5,0.9c0.1,0.3,0.3,0.5,0.4,0.7c-0.3,0.7-0.3,0.7,1,1.8c0.9,0.1,1.6-0.4,2.3-0.9
	c1.2,0.8,1.3,1.7,1.5,2.3c0.4,0.4,0.7,0.7,1,1c0.5,0,1-0.5,1.4-0.8c0.6-0.4,0.5-1.2,0.8-1.9c0.6-0.4,1.3-0.6,1.4-1.4
	c-1-0.5-1-0.5-1.6-1.4c0.2-0.4,0.4-0.8,0.6-1.2c1.1-0.4,2-1,2.6-2c0.2-0.4,0.7-0.7,1-0.7c0.4,0.3,0.6,0.5,0.8,0.6
	c-0.1,0.8-0.7,1.4-1.1,2c-0.5,0.6-0.8,1.2-0.3,1.9c0.5,0.3,0.9,0.5,1.5,0.8c0.7,0.1,1.4-0.1,2.1-0.4c0.8-0.2,1.5,0.2,2.2,0.4
	c-0.4,0.5-0.9,0.6-1.3,0.8c-0.3,0.1-0.7,0-1.1-0.1c-0.6-0.2-1.3-0.2-1.9,0.4c0.4,0.4,0.7,0.7,1,1c-0.2,0.4-0.4,0.5-0.7,0.8
	c-0.5-0.3-0.9-0.7-1.4-0.5c-0.7,0.7-0.3,1.3-0.2,1.8c-0.5,0.7-1.1,1-1.9,1.3c-0.2-0.3-0.6-0.3-0.9-0.5c-0.7,0.4-1.6,0.5-2.3,0.9
	c-0.5-0.2-0.9-0.5-1.3-0.7c-0.5,0.1-0.9,0.4-1.4,0.4c-0.2-0.2-0.5-0.4-0.6-0.6c0.2-0.3,0.4-0.5,0.6-0.7c0.1,0.1,0.2,0.2,0.3,0.3
	c0.2-0.2,0.4-0.3,0.6-0.5c0.1-0.3-0.1-0.6-0.3-0.7c-0.3,0.2-0.7,0.3-0.9,0.7c-0.3-0.4-0.5,0.2-0.8-0.2c0-0.5,0.4-1,0.1-1.6
	c-0.5,0.4-1.2,0.6-1.2,1.5c0.2,0.3,0.3,0.7,0.2,1.1c0.2,0.1,0.3,0.1,0.4,0.1c-0.2,0.4-0.4,0.8-0.8,1c-0.7-0.1-1.4,0-2,0.3
	c-0.3,0.9-1.2,1.1-1.7,1.7c-0.3,0.4-0.8,0.4-1.2,0.5c-0.3,1-1.2,1.3-2,1.7c-0.2-0.1-0.2-0.3-0.4-0.2c-0.3,0-0.4,0.4-0.7,0.5
	c-0.3,0-0.5,0.3-0.8,0.4c-0.8-0.4-1-0.4-1.4,0.3c0.7,0.3,1.3,0.5,1.9,0.8c0.2,0.6,0.7,1.2,0.5,1.8c-0.2,0.6-0.1,1.3-0.5,1.9
	c-0.2,0-0.3,0.1-0.4,0.2c-1.2,0.3-2.3,0-3.5-0.2c-0.7-0.1-1.3-0.2-1.9,0.1c-0.1,0.4-0.5,0.8-0.1,1.2c0.1,0.1,0,0.3,0,0.4
	c-0.2,0.8-0.4,1.5-0.6,2.3c-0.1,0.4-0.2,0.7,0.1,1.1c0.2,0.3,0.1,0.5-0.1,0.7c0.1,0.1,0.2,0.2,0.3,0.3c0.4,0,0.7,0,0.9,0
	c0.8,0.3,1.3,0.8,1.7,1.4c0.2-0.4,0.4-0.6,0.6-0.9c0.6,0,1.2,0,1.8,0c0.9-0.3,1.4-1,2.1-1.7c0-0.3,0-0.6,0-0.8
	c0.4-0.6,0.6-1.3,1.3-1.6c0.6-0.3,0.9-1.1,1.7-1c0.2-0.4-0.5-0.7,0-1.1c0.2-0.1,0.4-0.2,0.7-0.4c0.2,0,0.6-0.1,0.8,0
	c0.4,0.2,0.9,0.3,1.3,0c0.4-0.3,1-0.2,1.3-0.6c0.2-0.3,0.6-0.4,0.9-0.5c0.6,0.2,0.9,0.6,1.1,1.1c0.2,0.4,0.4,0.7,0.8,1
	c0.4,0.2,0.9,0.7,1,1.2c1.5-0.1,2.3,0.8,3,2c-0.2,0.3-0.3,0.7-0.2,1.1c0.3-0.3,0.6-0.5,0.8-0.7c0.1-0.5-0.4-0.7-0.4-1.1
	c0.5-0.8,1.1,0.2,1.7-0.2c-0.6-0.5-1.3-0.7-1.9-1c-0.7-0.4-1.4-0.8-1.9-1.4c-0.4-0.5-0.7-1-1.3-1.3c-0.4-0.2-0.5-0.6-0.4-1.1
	c0.1-0.4,0.5-0.3,0.8-0.5c0.2,0.3,0.6,0.5,0.6,0.8c0.9,0.3,1.8,0.5,2.2,1.5c0.7,0,1.3,0.3,1.9,0.6c0.4,0.2,0.6,0.9,0.9,1.3
	c-0.2,0.7,0.2,1.4,0.5,2c0.3,0.2,0.7,0.2,1,0.5c0.3,0,0.6,0,0.9,0c-0.1,0.1-0.1,0.1-0.2,0.2c0.2,0,0.3,0.1,0.4,0.1
	c-0.2,0.6-0.7,0.2-1.1,0.5c0.5,0.5,0.5,1.3,1.3,1.4c0.3-0.3,0.2-0.9,0.6-1.1c-0.2-0.8-0.6-1.4-1-2c0.2-0.2,0.4-0.4,0.5-0.5
	c0.3,0,0.5,0,0.7,0.2c0.1-0.6,0.6-0.6,1-0.9c0.2,0.6,0.9,0,1.1,0.3c0.7-0.1,1.4-0.1,1.9-0.4c-0.2-0.3-0.6-0.3-0.9-0.7
	c0-1.6,0.9-2.9,1.8-4.1c0.3-0.5,0.9-0.6,1.4-0.8c0.3,0.2,0.4,0.5,0.5,0.7c0.3-0.1,0.5,0.1,0.8,0.4c-0.2,0.1-0.3,0.2-0.5,0.3
	c0.3,0.5,0.7,0.7,1.1,0.8c0.4-0.3,0.9-0.5,1.4-0.7c0.1,0,0.1-0.1,0-0.2c-0.2,0-0.5,0-0.6,0c-0.2-0.2-0.4-0.4-0.7-0.6
	c1.1-0.6,2.2-1,3.4-1.4c-0.1,0.2-0.2,0.3-0.2,0.4c0.1,0.1,0.1,0.1,0.2,0.2c-0.1,0.2-0.4,0.3-0.4,0.6c0,0.2,0.2,0.2,0.2,0.3
	c-0.4,0.3-0.3,0.8-0.7,1.1c1.2,0.6,2.3,1.4,3.5,1.9c0.2,0.1,0.2,0.4,0.3,0.6c0.3,0.1,0.6,0,0.9,0.2c-0.3,0-0.5,0-0.6,0
	c-0.3,0.4-0.6,0.9-0.8,1.3c-0.8-0.1-1.5,0.6-2.2,0c-0.8,0-1.4-0.6-2.2-0.9c-0.7,0.1-1.5-0.5-2.6-0.1c-0.5,0.1-0.9,1.3-2,0.5
	c-0.1,0.5-0.5,0.1-0.7,0.4c-0.1,0.6-0.7,0.8-1.1,1c-0.7-0.3-0.9-0.3-1.4,0.3c0.4,0.1,0.7,0.4,0.9,0.7c0,0.3,0,0.6,0,0.9
	c0.3,0.3,0.3,0.7,0.6,0.9c0.5,0.5,1.3,0.5,1.9,0.7c0.2-0.2,0.3-0.3,0.5-0.5c0.4,0,0.7,0,0.9,0c0.4,0.2,0.8,0.4,0.9,0.6
	c0.6,0,1,0,1.5-0.3c0.4-0.3,0.8-0.4,1.3-0.3c0.1,0,0.1,0.1,0.2,0.1c0.3,0.2,0.3,0.5,0.4,0.8c-0.1,0-0.2,0.1-0.4,0.1
	c0,0.4-0.1,0.8,0.2,1.2c-0.5,1-0.5,1-0.3,1.6c-0.1,0-0.3,0.1-0.4,0.1c0.1,0.6-0.1,1.1-0.3,1.6c-0.6,0.5-1.3,0.2-1.8,0.7
	c-0.2-0.1,0-0.3-0.2-0.4c-0.1,0-0.2,0-0.3,0c-0.5-0.2-0.9-0.3-1.4,0c-0.3,0.1-0.7,0.3-1,0.2c-0.5-0.2-1.1-0.1-1.6-0.3
	c-0.7-0.2-1.4-0.4-2.1-0.4c-0.5-0.3-1-0.6-1.6-0.8c-0.7-0.4-1.4-0.6-2.2-0.4c-0.3,0.3-0.5,0.6-0.5,1c-0.1,0.2,0.3,0.3,0.3,0.3
	c-0.5,0.5-0.8,0.8-1.2,1.2c-0.8-0.5-1.7-0.8-2.7-0.9c-0.3-0.4-0.6-0.8-0.8-1.3c-0.9-0.3-1.9-0.5-2.8-0.7c-0.4-0.4-0.8-0.8-1.2-1.2
	c0.2-0.4,0.3-0.8,0.5-1.3c-0.2-0.2-0.3-0.4-0.4-0.5c-0.1-0.3,0.3-0.4,0.2-0.6c-0.2-0.3-0.6-0.4-0.9-0.6c-0.5,0.2-1,0.6-1.6,0.6
	c-0.9,0.1-1.9,0.2-2.7,0c-0.7-0.1-1.2-0.1-1.8,0c-1,0.2-2,0.6-2.9,1.2c-0.5,0.4-1.2,0.8-1.8,0.5c-0.4-0.2-0.8-0.1-1.1-0.2
	c-0.3-0.3-0.6-0.5-1.1-0.6c-0.1,0.1-0.2,0.3-0.3,0.4c-0.3,0.5-0.5,1.1-1,1.3c-0.5,0.3-0.9,0.7-1.4,0.9c-0.3,0.1-0.4,0.3-0.5,0.6
	c-0.5,0.8-0.7,1.6-0.6,2.4c-0.7,0.7-1.3,1.4-2.2,1.8c-0.2,0.1-0.5,0.2-0.6,0.4c-0.2,0.4-0.5,0.6-0.7,0.9c-0.2,0.3-0.4,0.7-0.7,1
	c-0.3,0.3-0.5,0.7-0.6,1.1c-0.3,0.6-0.6,1.2-1,1.7c-0.4,0.5-0.9,1.1-0.8,1.9c0,0.1-0.2,0.2-0.2,0.3c0.2,0.4,0.4,0.8,0.6,1.2
	c0.2,0.4-0.2,0.9,0.2,1.3c0.1,0.2,0.1,0.6-0.1,0.9c-0.3,0.9-0.5,1.8-1.3,2.4c0.3,0.6,0.5,1.1,0.9,1.5c-0.2,0.1-0.4,0-0.4,0.2
	c0.1,0.2,0.4,0,0.4,0.2c-0.1,0.1-0.2,0.1-0.3,0.1c-0.1,0-0.3,0-0.4,0.2c0.1,0.5,0.4,0.5,0.8,0.5c0.1,0,0.1,0.1,0,0.1
	c-0.1,0-0.3,0.1-0.4,0.2c0.1,0.1,0.2,0.2,0.3,0.2c0.7,0.1,1,0.6,1.3,1.1c0.1,0.2,0.2,0.5,0.4,0.6c0.5,0.5,1.1,1,1,1.8
	c0,0.1,0.1,0.3,0.2,0.4c0.3,0.5,0.9,0.7,1.1,1.3c0,0.2,0.3,0.1,0.4,0.2c0.5,0.6,1.3,0.8,1.7,1.5c0.2,0.1,0.4,0.1,0.6,0.1
	c0.4,0.2,0.9,0.2,1.4,0.3c0.5-0.4,1.1-0.4,1.6-0.5c0.6-0.2,1.3-0.4,2-0.2c0.2,0.1,0.5,0.3,0.8,0.3c0.3,0,0.5-0.2,0.8-0.3
	c0.7-0.3,1.5-0.3,2.1-0.9c0.2,0,0.6,0,0.9,0c0.1-0.2,0.3-0.3,0.4-0.4c0.4,0.1,0.8-0.1,1.2-0.3c0.3,0.4,0.8,0.5,1.2,0.7
	c0.5,0.2,0.6,0.6,0.8,1c0.1,0.2,0,0.3,0,0.5c0.8,0.1,1.4-0.4,2.1-0.1c0.7,0.3,1.2,0.7,1.6,1.5c0,0.8,0.2,1.8-0.3,2.6
	c-0.2,0.4,0,0.9-0.4,1.3c-0.1,0.1-0.1,0.4,0,0.6c0.3,0.4,0.4,1,0.8,1.3c0.4,0.3,0.7,0.7,1.1,1.1c0.3,0.3,0.5,0.7,0.7,1.2
	c0.3,1,0.5,2,1.1,2.8c0.1,0.1,0.2,0.2,0.1,0.6c-0.1,0.3-0.3,0.7,0,1.4c0.2,0.5,0.4,1,0.5,1.5c0,0.1,0,0.2-0.1,0.2
	c-0.5,1-1.1,1.9-1.4,2.9c-0.1,0.4,0,0.8-0.3,1.1c-0.4,0.4-0.4,1-0.2,1.4c0.2,0.4,0.1,0.8,0.2,1.1c0.4,0.7,0.8,1.4,1.2,2.1
	c0.4,0.7,0.7,1.4,0.8,2.2c0.2,0.8,0.6,1.6,0.5,2.4c-0.1,0.9,0.4,1.7,0.2,2.5c0.3,0.1,0.2,0.4,0.4,0.6c0.7,0.7,1.2,1.5,1.6,2.4
	c0.1,0.2,0.1,0.4,0.3,0.5c0.3,0.3,0.5,0.7,0.7,1c-0.5,1.3-0.2,2,0.8,2.5c0.2,0.1,0.5,0.2,0.6,0.1c0.3-0.4,0.9,0,1.2-0.4
	c0.5,0.1,0.9-0.4,1.4-0.2c0.5,0.2,1.1,0.2,1.5,0.4c0.4-0.2,0.8-0.5,1.1-0.6c1.2-0.5,2.1-1.3,2.9-2.3c0.3-0.3,0.6-0.7,0.9-1.1
	c0.4-0.4,0.8-0.8,1-1.3c0.1-0.4,0.5-0.7,0.9-0.9c0.2-0.1,0.4-0.2,0.4-0.4c-0.4-0.8-0.3-1.5,0-2.3c0.9-0.6,1.9-0.8,2.4-1.7
	c0-0.1,0-0.3,0-0.3c0.5-0.5,0.1-0.9,0-1.4c-0.2-0.5-0.5-0.9-0.7-1.2c0.1-0.7,0.5-1,0.8-1.3c0.3-0.3,0.8-0.6,0.9-1
	c0.2-0.6,0.6-0.9,1.2-1.1c0.5-0.3,1.1-0.5,1.6-0.9c0.7-0.6,1-1.5,1.4-2.2c-0.2-1.1-0.8-2.2-0.2-3.2c-0.2-0.5-0.5-1-0.7-1.4
	c-0.4-0.7-0.5-1.5-0.7-2.2c-0.2-0.8-0.1-1.6,0.1-2.4c0.1-0.5,0.3-0.9,0.6-1.3c0.5-0.6,0.9-1.2,1.4-1.7c0.4-0.4,0.8-0.9,1.2-1.4
	c0.4-0.5,0.7-1.2,1.3-1.6c0.3-0.2,0.7-0.4,0.9-0.7c0.5-0.5,1.1-0.9,1.7-1.3c0.3-0.2,0.5-0.4,0.6-0.7c0.1-0.4,0.3-0.7,0.5-1
	c0.9-1.6,1.8-3.3,2.6-5c0.2-0.4,0.3-0.8,0.1-1.2c-0.2-0.3,0.1-0.7-0.2-0.9c-0.8,0.4-1.5,0.7-2.4,0.9c-0.8,0.1-1.6,0.2-2.4,0.5
	c-0.3,0.1-0.6,0.2-0.9-0.1c-0.3-0.2-0.7-0.2-1-0.5c0-0.3-0.4-0.5-0.3-0.9c0.1-0.3-0.2-0.5-0.3-0.8c-0.3-0.6-2.1-2.4-2.7-2.7
	c-0.9-0.4-0.9-1.2-1-1.9c-0.7-0.9-1.5-1.7-2-2.8c0-0.4,0-1,0-1.4c-0.6-0.8-1.2-1.5-1.5-2.3c-0.3-0.7-0.5-1.3-0.9-1.9
	c-0.7-1.2-1.3-2.5-2.3-3.7c0.2-0.1,0.3-0.2,0.5-0.3c0.6,0.4,0.8,1.2,1.6,1.7c0-0.4,0-0.7,0-1.1c0.2,0,0.4,0,0.6,0
	c0.1,0.3,0.2,0.6,0.3,0.9c0.1,0.8,0.5,1.4,1,1.9c0.4,0.5,0.9,0.9,1.2,1.5c0.3,0.7,0.9,1.2,1.4,1.8c-0.2,0.3,0.2,0.6,0.2,0.9
	c0.2,1.3,0.6,1.8,1.5,2.6c0.2,0.2,0.4,0.3,0.5,0.6c0.3,0.8,0.8,1.5,1.5,2c0.1,1.5,0.2,2.9,1.2,4.1c0.6,0,1-0.4,1.5-0.2
	c0.1-0.1,0.2-0.2,0.3-0.2c1.2-0.6,2.4-1.2,3.7-1.6c0.6-0.2,1.2-0.5,1.5-1.1c0.5-1,1.4-1.2,2.4-1.3c0.1-0.1,0.2-0.2,0.3-0.3
	c1.1-0.5,1.6-1.5,2.1-2.4c0.3-0.5,0.6-1,1-1.4c0.2-0.2,0.5-0.5,0.7-0.7c0-0.2,0-0.4-0.1-0.5c-0.9-0.7-1.7-1.6-2.8-1.9
	c-0.2-0.5-0.7-0.8-0.2-1.4c-0.1-0.1-0.2-0.2-0.2-0.3c0-0.1,0-0.2-0.2-0.2c-0.4,0.8-1.1,1.3-1.7,1.9c-0.4-0.2-0.6,0.3-1.1,0.2
	c-0.2-0.4-0.7-0.5-1.2-0.7c0.1-0.1,0.1-0.2,0.2-0.3c-0.2-0.2-0.1-0.6-0.5-0.8c-0.2,0.4-0.4,0.9-0.9,0.7c-0.7-0.5-0.4-1.3-0.8-1.9
	c-0.4-0.6-0.8-1.2-1.3-1.8c0-0.2,0-0.5,0.1-0.6c0.3-0.2,0-0.5,0.2-0.7c0.2-0.1,0.4-0.2,0.6-0.3c0.9,0.3,1.5,0.9,1.8,1.9
	c0,0.1,0.2,0.2,0.2,0.2c0.1,0.3,0.3,0.4,0.5,0.5c0.7,0.3,1.3,0.7,1.8,0.9c1,0.4,1.6-0.3,2.4-0.3c0.5,0.5,1,0.9,1.2,1.4
	c0.8,0.4,1.6,0.2,2.3,0.6c0.2,0.1,0.5,0.1,0.6,0c0.4-0.3,0.8-0.2,1.2-0.2c0.3,0,0.7,0,1,0.2c0.7,0.3,1.4-0.1,2-0.4
	c0.4,0.2,0.9,0.4,1.3,0.7c0.2,0.3,0.3,0.6,0.5,0.9c0.7,0.1,1.1,0.7,1.5,1.1c0.2,0,0.5,0,0.7-0.2c0.1,0.1,0.3,0.2,0.3,0.4
	c-0.1,0.5-0.6,0.4-0.8,0.5c0.2,0.7,0.7,1,1.2,1.3c0.3,0,0.6,0,0.7,0c0.3-0.2,0.5-0.4,0.7-0.5c-0.2-0.1-0.3-0.2-0.2-0.4
	c0.1-0.2,0.2-0.4,0.5-0.4c0.5,0.5,0.7,1.2,0.5,1.7c-0.1,0.3-0.2,0.7-0.1,0.9c0.4,1.1,0.5,2.3,1.2,3.3c0.1,0.1,0.2,0.4,0.3,0.5
	c0.6,1.5,1.2,3.1,2,4.5c0.4,0.7,0.5,1.5,0.7,2.2c0.4,0.2,0.7,0.4,1.1,0.5c0.5-0.5,0.9-1,1.2-1.6c0.3-0.5,0.6-1,0.4-1.6
	c-0.1-0.5,0.1-1.1,0.2-1.5c0.1-0.3,0.4-0.6,0-0.9c0.2-0.5-0.3-0.9-0.2-1.3c0.4-0.7,1.1-1,1.6-1.4c0.3-0.2,0.5-0.3,0.6-0.6
	c0.2-0.7,0.8-1.1,1.5-1.2c0.2-1.1,1.2-1.4,1.8-1.7c0.4-0.4,0.1-0.6,0-0.8c0.2-0.2,0.2-0.5,0.5-0.7c1-0.4,2.2-0.3,3.1-0.9
	c1.1,0.3,1,1.5,1.5,2.1c0.5,0.3,0.9,0.5,1.3,0.7c0.3,0.5,0.6,0.9,0.7,1.4c0.2,0.6,1,1,0.3,1.7c0.1,0.3,0.2,0.5,0.4,0.7
	c0.3-0.1,0.4,0.4,0.8,0.3c0.4-0.4,0.8-0.8,1.2-1.2C211.7,113.9,211.9,114.1,212.1,114.2z M170.4,92.1c0,0.6,0,1.2,0,1.8
	c-0.3,0.4-0.8,0.4-1.2,0.8c-1-0.5-2-1-3.1-1.6c0-0.6,0-1.1,0-1.6c-0.1-0.3-0.4-0.1-0.5-0.3c0.2-0.2,0.4,0,0.6-0.2
	c-0.2-0.8-0.4-1.5-1.1-2c-0.2-0.2-0.4-0.4-0.6-0.6c-0.3-0.3-0.5-0.8-0.5-1.2c-0.2-0.4-0.7-0.3-0.8-0.7c0.2-0.9,1.1-1.2,1.6-1.8
	c0.6-0.7,1.5-0.7,2.2-1c0.1,0.5,0.7,0.5,1.1,0.8c0.4,0.3,0.4,0.8,0.8,1c-0.1,0.2-0.2,0.3-0.3,0.4c-1-0.4-1.5-0.3-2.1,0.8
	c0.2,0.7,0.7,1.1,1.4,1.4c0.3,0.1,0.9,0.2,0.8,0.8c0.3-0.1,0.5-0.2,0.8-0.4c0.5,0.4,0.8,0.9,1,1.5c-0.3,0.2-0.5,0.3-0.7,0.4
	c-0.2,0.1-0.3-0.4-0.7-0.2C169.4,91.1,169.7,91.7,170.4,92.1z"/>
<path class="st0" d="M50.6,122.8c-0.1-0.1-0.3-0.2-0.2-0.4c0.3-0.5,0.9-0.5,1.3-0.8c-0.2,0-0.2-0.3-0.5-0.3
	c-0.2,0.2-0.5,0.2-0.7,0.3c-0.3,0.1-0.6,0.3-0.8,0.4c-1.3-0.8-1.4-0.8-1.9-1.6c-0.3-0.4-0.5-1-0.2-1.5c0.1-0.1,0.1-0.3,0.1-0.4
	c-0.1-0.8,0.4-1.5,0.2-2.2c0.4-0.5,0.2-0.9-0.1-1.3c-2.1-0.1-3.4-0.1-4,0.2c-0.1-0.2-0.2-0.4-0.3-0.6c0.8-1.6,1.5-3.3,2.2-4.9
	c-1-0.7-1.9-0.1-2.9,0.1c0.2,0.3-0.2,0.5-0.2,0.8c-0.1,0.5-0.4,0.8-0.9,1.2c-0.8,0.6-1.7,0.5-2.5,0.8c-0.1,0.1-0.3,0-0.5-0.1
	c-1.2-0.5-1.8-1.4-2-2.6c0-0.2-0.1-0.4-0.1-0.5c-0.1-0.6-0.5-1.1-0.3-1.6c0.3-0.6,0.4-1.3,0.6-2c0.1-0.4,0.4-0.6,0.5-1
	c0.1-0.8,0.3-1.6,0.7-2.3c0.5-0.3,0.9-0.7,1.4-0.7c0.7-0.1,1.1-0.4,1.6-0.7c0.7-0.4,1.5-0.6,2.2-0.1c0.6,0.4,1.3,0.5,2,0.6
	c0.1-1.2,1.1-1.3,2-1.6c0.5,0.4,1.2,0.4,1.8,0.8c0.2,0.1,0.4,0.2,0.6,0c0.2-0.2,0.4-0.1,0.5-0.1c0.4,0.4,0.7,0.7,1.1,1
	c0.1,0.6-0.5,1.2-0.1,1.8c0.3,0.5,0.4,1.1,0.6,1.7c0.3-0.1,0.3,0.2,0.6,0.2c0.4-0.3,0.4-0.7,0.6-1.1c0.2-0.2,0.1-0.5,0.1-0.6
	c-0.3-0.6,0-1.2-0.2-1.8c-0.3-0.6-0.1-1.3-0.2-1.8c0.4-0.6,0.6-1.2,1-1.5c0.6-0.5,1.3-0.8,1.9-1.3c0.5-0.4,1-0.5,1.5-0.8
	c0.7-0.3,1.2-1,1.7-1.5c0.1-0.2-0.1-0.5,0.2-0.6c0.2-0.1,0.1-0.4,0.1-0.5c-0.5-0.7-0.1-1.2,0.3-1.7c0.3,0.1,0.3,0.4,0.5,0.8
	c0-0.4,0-0.7,0-0.8c0.5-0.5,0.9-0.9,1.6-1.1c0.3-0.1,0.6-0.2,0.7-0.5c0.2-0.6,0.7-0.8,1.3-1c0.6-0.2,1.3-0.3,1.9-0.7
	c0.2-0.1,0.4-0.2,0.5-0.3c-0.1-0.4,0.3-0.8,0.3-1.1c1-0.6,2.1-0.8,3-1.4c0.4-0.3,0.9-0.4,1.4-0.6c0.5-0.2,1.1-0.5,1.6-0.3
	c0.1,0.1,0.2,0.2,0.3,0.3c-0.1,0.1-0.2,0.3-0.5,0.4c-0.6,0.1-1.2,0.4-1.6,0.9c-0.1,0.1-0.1,0.1,0,0.2c0.2,0.1,0.4,0.1,0.5,0.2
	c0.7-0.4,1.3-0.8,2-1c0.4-0.1,0.9-0.2,1.3-0.3c0.4-0.1,0.8-0.5,1.2-0.7c-0.6-0.3-1,0.2-1.5,0.2c-0.5,0-0.9-0.4-1.3-0.5
	c-0.2-0.4-0.4-0.7-0.5-1.1c0.3-0.3,0.5-0.6,0.8-0.7c0.2-0.4,0.3-0.6,0.5-0.9c-1.7-0.1-2.2,0-4.3,1.3c-0.1-0.2-0.3-0.2-0.3-0.4
	c0.1-0.2,0.3-0.3,0.5-0.5c0.7-0.4,1.4-0.6,2.1-1c1.1-0.6,2.3-0.8,3.5-0.7c0.6,0.4,1.3,0.2,1.9,0c0.5-0.1,1.1-0.1,1.5-0.3
	c0.8-0.4,1.6-0.6,2.3-1c0.3-0.1,0.4-0.5,0.7-0.5c0.2-0.4,0.3-0.7,0.5-1c-0.2-0.2-0.5-0.5-0.7-0.7c-0.8-0.2-1.4,0.1-2,0.4
	c-0.1-0.1-0.3-0.3-0.4-0.4c0.2-0.3,0.5-0.6,0.9-0.6c-0.4-0.6-0.5-1.3-1.1-1.8c0.3-0.2,0.3-0.6,0.4-0.8c-0.2-0.3-0.3-0.6-0.5-0.9
	c0.8-0.5-0.2-1,0-1.5c-0.6,0.3-1.1,0.7-1.6,1.1c-0.5,0.3-1.1,0.5-1.5,0.8c-0.4-0.4-0.7-0.7-1-1c0.1-0.3,0.3-0.6,0.5-0.9
	c-0.1-0.3-0.2-0.6-0.5-0.8c-0.8-0.7-1.8-0.9-2.8-1.1c-0.7-0.1-1.2,0.3-1.8,0.5c-0.2,0.5-0.4,1.1-0.7,1.6c-0.3,0.5-1,0.6-1.2,1
	c-0.3,0.6,0.3,1.1,0.1,1.7c-0.1,0.1-0.4,0.3-0.5,0.5c-0.3,0.7-0.8,0.9-1.4,1.2c-0.3,0.1-0.6,0.3-0.9,0.5c-0.6,0.3-1,0.7-1.1,1.4
	c-0.1,0.5-0.3,1.1-0.6,1.5c-0.5,0.1-0.8,0.6-1.4,0.5c-0.4-0.3-0.5-0.9-0.8-1.3c0.3-0.7,0.6-1.5,0.8-2.2c-0.1-0.1-0.2-0.3-0.4-0.3
	c-0.8-0.1-1.7-0.2-2.3-0.9c-0.7-0.2-1.2-0.8-2-0.7c-0.3,0-0.6-0.2-0.8-0.4c-0.2-0.3-0.4-0.6-0.4-1.1c-0.3,0.1-0.4-0.2-0.6-0.3
	c0.3-1,1-1.6,1.9-2.1c0.2-0.1,0.5-0.3,0.7-0.4c0.4-0.4,0.9-0.5,1.4-0.8c0.5-0.2,1.1-0.3,1.6-0.7c-0.1-0.1-0.3-0.2-0.3-0.3
	c0.2-0.3,0.3-0.4,0.4-0.6c0.8,0.6,2,0,3.8-0.5c-0.4-0.3-0.7-0.6-1-0.9c0.1-0.1,0.2-0.2,0.3-0.3c0.4,0.1,0.7,0.5,1.3,0.4
	c0.7-0.6,1.7-0.7,2.7-0.7c0.4,0,0.7,0,1,0c0.5-0.3,1.2-0.4,1.4-1c0.2-0.6,1.1-0.6,1-1.3c-0.6-0.5-1.3-0.3-1.9-0.3
	c-0.8,1-1.7,1.6-2.9,2c0-0.2-0.3-0.2-0.3-0.4c0.2-0.4,0.3-0.7,0.7-1c-0.3-0.1-0.5-0.2-0.7-0.3c-0.2,0-0.2,0.3-0.6,0.2
	c-0.3-0.1-0.3-0.6-0.5-0.9c0.3-0.2,0.3-0.6,0.5-0.9c-0.2,0-0.2-0.4-0.7-0.3c-0.7,0.3-1.5,0.6-2.4,1.2c0.6,0,0.8,0.3,1,0.5
	c-0.1,0.6-0.5,1-1,1c-0.9,0-1.5,0.7-2.2,1.1c-0.2-0.4-0.8-0.4-1-0.8c-0.8-0.2-1.4,0.4-2.1,0.2c-0.7-0.3-1.4-0.2-2-0.6
	c-0.5,0.2-0.9,0.4-1.3,0.5c-0.5,0.1-0.9,0.2-1.1,0.8c-0.1,0.2-0.4,0.4-0.5,0.5c-0.5-0.4-0.5-1-0.9-1.3c-0.9,0.2-1.9,0.3-2.8,0.1
	c-0.1-0.1-0.3-0.1-0.4-0.1c0.2-0.3,0.5-0.3,0.8-0.6c-0.6,0-1,0-1.3,0c-0.7-0.6-1.6-0.6-2.4-0.8c-0.5-0.1-1.1-0.2-1.7,0.2
	c-0.2,0.1-0.5,0.1-0.8-0.1c-0.3-0.2-0.7-0.3-1-0.5c-0.5,0.2-0.9,0.7-1.6,0.2c-0.1-0.1-0.4,0-0.6,0.1c-0.9,0.3-1.9,0.6-2.9,0.7
	c-1.1,0.2-2.3,0.1-3.5-0.3c-0.6-0.2-1.2-0.5-1.9-0.5c-0.9,0-1.7-0.3-2.7-0.3c-0.6,0-1.2-0.3-1.8-0.2c-0.2-0.4-0.6-0.3-0.9-0.2
	c-0.4,0.1-0.6-0.2-0.9-0.3c-0.5,0-1,0.1-1.6,0.2c-0.5,0.1-1,0.1-1.6,0.2c-0.5,0.1-1.1,0.1-1.7,0.2c-0.8,0.1-1.5,0.4-2.2,0.7
	c-0.6,0.3-1.3,0.5-2,0.5c-0.7-0.1-1.2,0.3-1.9,0.6c0.4,0.4,0.7,0.7,1,1.1c-0.3,0.4-0.8,0.5-1.3,0.7c-0.3,0.1-0.8,0.1-1.1-0.2
	c-0.1-0.1-0.3,0-0.4,0c-1,0.1-1.9,0.3-2.7,1c0.8,0.5,1.2,0.6,3.2,0.1c0.1,0.1,0.2,0.2,0.3,0.3c-0.1,0.3-0.5,0.3-0.7,0.5
	c-0.6,0.8-1.6,0.8-2.5,0.9c-1.1,0.1-2.2,0.3-3,1.1c0,0.1,0,0.2,0,0.3c0.1,0.3,0.4,0.5,0.1,1c-0.2,0.3-0.4,0.5-0.7,0.7
	c-0.2,0.1-0.6,0.1-0.7,0.5C6.7,72.6,7,73,7.5,73c0.3-0.2,0.7-0.3,1-0.5c0.1,0.1,0.2,0.2,0.4,0.4c-0.7,0.8-1.7,1.1-2.7,1.5
	c-0.9,0.4-1.9,0.8-3,1.2c0.6,0,1.1,0.1,1.4,0c1-0.5,2-0.7,3-1.2c0.8-0.4,1.6-0.9,2.5-1c0.9-0.1,1.7-0.6,2.5-1.1
	c0.5-0.4,1.2-0.5,1.7-0.8c0.3,0.2,0.6,0.3,0.8,0.5c1.1-0.3,2.1-0.5,2.9-1.1c1.5,0.4,2.8,0.9,4.3,0.9c0.4,0.4,0.9,0.6,1.3,1
	c0.1,0.2,0.4,0.2,0.6,0.3c0.6,0.1,1,0.4,1.2,1c0.1,0.4,0.1,0.9-0.2,1.3c0.3,0.3,0.4,0.7,0.4,1c0.1,0,0.3-0.1,0.3,0.2
	c-0.2,0.2-0.4,0-0.5,0.1c-0.2,0.4-0.4,0.8-0.6,1.2c0.2,0.3,0.3,0.6,0.5,0.9c-0.2,0.2-0.4,0.4-0.5,0.5c0,0.5,0.3,0.9,0.7,1.1
	c0.8,0.4,1.1,1,1.3,1.8c0.1,0,0.2,0,0.4,0.1c-0.6,0.6-0.7,1.5-1.4,1.9c-0.1-0.1-0.4-0.2-0.3-0.5c0-0.1,0.3-0.1,0.1-0.3
	c-0.3,0-0.6,0-0.9,0c-0.1,0.1,0,0.3-0.1,0.4c-0.6,1.1-1,2.4-2,3.2c-0.5,0.4-1,1-1.1,1.6c-0.2,0.8-0.7,1.4-1.3,2c0,0-0.1,0.1-0.1,0.2
	c-0.1,0.2,0.3,0.3,0.2,0.4c-0.1,0.4-0.4,0.7-0.5,1c0.1,0.5,0.3,0.8,0.7,1.1c-0.2,0.2-0.3,0.3-0.4,0.3c0.2,1,0.4,1.9,0.6,2.7
	c0.5,0.2,0.9,0.5,1.3,0.7c0.3,0.4,0.3,0.8,0.6,1.1c0,0.2,0,0.4,0,0.6c0,0.2-0.2,0.3-0.2,0.5c0,0.4-0.1,0.7,0.2,1.1
	c0.4,0.6,0.6,1.3,0.9,1.9c-0.2,0.3-0.3,0.5-0.4,0.7c0.1,1,1.2,1.1,1.5,1.7c0.1,0.5-0.3,0.7-0.2,1.1c0.2,0.4,0.8,0.5,0.6,1.2
	c0.4,0.2,0.5,0.7,1.1,0.7c-0.6-1.3-1.1-2.6-1.1-4c-0.7-1.2-1.2-2.4-1.5-3.6c0.2-0.3,0.2-0.7,0.6-0.9c0.5,0,0.8,0.2,1.2,0.6
	c-0.2,0.4,0.2,0.9,0.2,1.3c0,0.7,0.3,1.2,0.7,1.7c0.4,0.6,0.8,1.2,1.1,1.8c-0.2,0.1-0.2,0.2-0.2,0.5c0.5,0.5,1,1,1.5,1.5
	c0,0.5,0.2,0.8,0.5,1.1c0.4,0.5,0.8,1.2,0.6,1.8c-0.1,0.5-0.1,1-0.4,1.4c0.4,0.4,0.7,0.7,1,1c0.3,0.2,0.5,0.5,0.8,0.7
	c1.8,0.9,3.7,1.9,5.6,2.7c0.6-0.2,1.2-0.5,1.8-0.7c0.9,0.3,1.6,0.8,2,1.6c0.2,0.4,0.6,0.6,1.1,0.8c0.5,0.2,1.1,0.3,1.5,0.6
	c0.3,0,0.7,0,1.1,0c0.1-0.1,0.2-0.3,0.3-0.5c0.2,1,0.6,1.9,1.4,2.4c0,0.5,0,1,0.3,1.4c0.9,0.2,1.4,1,2,1.6c0.3,0,0.7,0,1,0.2
	c0.4,0.3,0.9,0.5,1.4,0.7C50.4,123,50.5,122.9,50.6,122.8z M59.4,87.2c0.4-0.3,0.9-0.3,1.3-0.6c0.4-0.1,0.6,0.3,0.8,0.3
	c0.1,0.1,0,0.1,0,0.2c-0.5,0.7-1.2,0.7-2.1,0.6C59.4,87.5,59.4,87.3,59.4,87.2z M55.5,89.4c-0.1-0.5,0-0.8,0.5-0.9
	c0.6-0.1,1-0.5,1.5-0.7c0.3,0.1,0.4,0.4,0.7,0.6C57.3,88.9,56.6,89.6,55.5,89.4z M51.5,83c0.2-0.3,0.3-0.1,0.5,0.1
	c0.5-0.2,0.9-0.4,1.4-0.4c0.2,0,0.4-0.1,0.6-0.2c0.4-0.2,0.8-0.3,1.3-0.1c0.2,0.1,0.5,0.1,0.6,0.5c0.1,0.3,0.3,0.4,0.4,0.6
	c0.1,0.3-0.5,0.5-0.2,0.8c0.3,0.3,0.6,0.5,0.9,0.8c0.3-0.1,0.6-0.3,0.8-0.4c0.6,0.3,1.1,0.6,1.2,1.2c-0.1,0.2-0.2,0.5-0.5,0.7
	c-0.3,0.1-0.4-0.5-0.9,0c0,0-0.2,0.2-0.3,0.6c-0.3,0.2-0.7,0.3-1,0.5c-0.4-0.2-0.7-0.4-0.9-0.7c0.1-0.6,0.6-0.9,1-1.3
	c-0.4-0.3-0.8-0.1-1.1-0.2c-0.6,0.4-1.2,0.6-1.6,1.1c-0.2,0.2-0.4,0.5-0.4,0.7c-0.2,0.9-0.6,1.7-1.7,2.1c0,0-0.1-0.2-0.2-0.3
	c-0.1-0.1-0.3-0.3-0.4-0.4c0.5-0.9,1-1.7,1.5-2.6c0.4-0.7,1-0.9,1.7-1.1c0.5-0.1,0.9-0.4,1.5-0.2c-0.3-0.4-0.6-0.6-0.9-0.4
	c-0.3,0.2-0.5,0.1-0.8,0c-0.3-0.2-0.7-0.3-1-0.5c-0.5,0.3-1,0.5-1.5,0.8c-0.2-0.4-0.8-0.1-1.1-0.6c0.4-0.4,0.8-0.6,1.3-0.8
	C51.7,83.1,51.6,83.1,51.5,83z"/>
<path class="st0" d="M89.4,135.3c-0.7-0.4-1.4-0.9-1.7-1.7c-0.9,0-1.7-0.4-2.6-0.2c-0.1,0-0.1,0-0.2,0c-0.8-0.5-1.4-0.1-2,0.5
	c-0.1-0.2-0.3-0.2-0.3-0.4c-0.1-0.3,0.3-0.5,0.2-0.8c-0.6-0.7-1.4-0.9-2.1-1.2c-1,0.1-1.3,1.2-2.2,1.3c0-0.5-0.5-0.1-0.7-0.4
	c0.2-0.2,0.4-0.1,0.5-0.1c0.3-0.3,0.7-0.7,1-1c-0.2-0.5-0.5-0.8-1.1-0.8c-1,0.3-1.4,1.3-2.3,1.8c-0.1-0.2-0.2-0.3-0.3-0.3
	c0.1-0.6,0.5-1,0.9-1.3c0.7-0.4,0.9-1,1.2-1.6c-0.1-0.3-0.4-0.1-0.4-0.3c-0.1-0.6-0.3-1.1-0.5-1.7c0-0.2,0-0.3-0.2-0.5
	c-0.8-0.7-1.4-1.7-2.7-1.8c-0.3,0-0.6-0.2-0.9,0c-0.2,0.2-0.4,0.1-0.6,0.1c-1-0.3-2.1-0.7-2.7-1.7c-0.4-0.8-1.1-1.1-1.6-1.6
	c-0.6-0.5-1.4-0.6-2-1c-0.4-0.2-0.8-0.6-1.3-0.1c-0.1,0.1-0.5,0.1-0.6,0c-0.3-0.2-0.6-0.1-0.8-0.2c-0.3-0.2-0.6-0.1-0.9-0.2
	c-0.4-0.2-1.1-0.1-1.1-0.8c-0.5,0-0.8-0.5-1.4-0.4c-0.3,0.4-0.8,0.6-1.2,0.9c-0.2,0.5,0.2,0.7,0.4,0.9c-0.2,0.4-0.4,0.8-0.8,1
	c-0.3-0.2-0.4-0.6-0.5-0.8c0-0.2,0.3-0.4,0.2-0.7c-0.1-0.7,0.1-1.2,0.8-1.7c-0.4,0-0.6,0-0.9,0c-0.3,0.3-0.7,0.7-1.1,1.1
	c-0.3,0-0.6,0-0.7,0c-1,0.4-1.3,1-1.6,1.7c-0.2,0.4-0.4,0.6-0.8,0.8c-0.2,0.1-0.3,0.3-0.4,0.4c-0.4-0.3-1.3-1.1-1.5-1.1
	c-0.1,0-0.3,0-0.4,0.1c0.2,0.5,0.8,0.5,1.1,1c-0.3,0.1-0.2,0.5-0.4,0.7c0.1,0.1,0.3,0.1,0.4,0.1c0.1,0.1-0.2,0.1-0.1,0.3
	c0.1,0.2,0.4,0.5,0.4,0.7c0,0.4,0.1,0.8,0.2,1.2c0.2,0.5-0.3,0.9-0.2,1.3c0,0.3-0.4,0.5-0.2,0.8c-1.2,1.4-2.5,2.8-3.1,4.7
	c0,0.3,0.3,0.5,0.3,0.8c0.3-0.1,0.6,0,0.8,0.4c-0.3,0.2-0.4,0.6-0.6,0.8c-0.3,0.3-0.3,0.7-0.7,0.9c0.1,0.3,0.3,0.4,0.3,0.7
	c0,0.5,0.2,0.9,0.7,1.2c0.4,0.2,0.7,0.6,0.9,1c0.4,0.8,0.8,1.6,1,2.4c0.2,0.9,0.9,1.5,1.4,2.3c0.3,0.4,0.7,0.7,0.8,1.3
	c0,0.4,0.3,0.7,0.5,1.1c0.4,0.6,0.7,0.9,1.1,1.1c1,0.4,2,0.9,2.8,1.7c0.9,0.3,1.1,1.2,1.7,1.7c0.1,0.1,0.2,0.3,0.2,0.4
	c0.2,0.8,0.3,1.7,0.4,2.6c0,0.2,0.1,0.4,0,0.5c-0.4,0.4,0,1-0.4,1.5c-0.2,0.2,0,0.5,0.2,0.8c0.3,0.5,0.3,1,0.2,1.4
	c-0.2,0.4-0.1,0.7-0.2,1c-0.1,0.9,0.4,1.8,0.2,2.8c0.4,0.5,0.1,1,0.3,1.5c0.2,0.7,0.4,1.4,0.4,2.1c0,0.5,0,1,0,1.4
	c0,0.5,0,0.9-0.2,1.3c-0.2,0.4,0,0.9,0,1.4c0.3,0.3,0.5,0.6,0.7,1.1c-0.6,0.5,0.1,1,0,1.6c0.6,0.6,1.2,1.2,1.8,1.8
	c0,0.3-0.4,0.4-0.2,0.8c0.3,0.4,0.6,0.8,0.9,1.3c-0.1,0.5-0.3,0.9-0.3,1.3c-0.4,0.1-0.7,0.3-1,0.6c1.2,0.3,1.6,1.1,1.9,2.1
	c0.2,0.6,0.3,1.3,0.9,1.7c0.2,0.2,0.3,0.5,0.4,0.8c0.3,0.1,0.5,0.2,0.8,0.4c-0.1,0.3,0.2,0.4,0.3,0.5c0.2,0.1,0,0.5,0.4,0.5
	c0.5-0.7,0.9,0.1,1.4,0.2c0.3-0.4,0.9-0.5,1.1-1c-0.2-0.1-0.3-0.3-0.4-0.4c0-0.3,0.1-0.7-0.2-0.9c0.2-0.9,0.7-1.6,1-2.3
	c0-0.2-0.3-0.3-0.2-0.6c0.1-0.3-0.2-0.4-0.3-0.5c-0.7-0.2-0.9-0.8-1.2-1.3c0.4-0.5,0.7-1.1,1.2-1.5c-0.2-0.3-0.4-0.5-0.4-1
	c0.2-0.2,0.4-0.4,0.6-0.6c-0.2-0.1-0.6-0.1-0.8-0.4c-0.2-0.4-0.4-0.8-0.6-1.2c0.1-0.2,0.3-0.3,0.4-0.4c0.5,0.3,1,0.5,1.5,0.8
	c0.2-0.4,0.4-0.8,0.6-1.1c-0.1-0.4-0.4-0.6-0.4-1c0.1-0.1,0.2-0.2,0.3-0.3c0.6,0,1.2,0,1.7,0c0.5-0.3,1-0.5,1.4-0.7
	c0.2-0.4,0.4-0.7,0.5-1.1c-0.3-0.6-0.7-1.3-1-1.9c-0.4-0.2-1-0.2-1-0.9c1-0.1,1.3,0,2.3,0.6c0.3,0,0.6,0,1,0
	c0.2-0.4,0.8-0.3,0.9-0.7c0.2-0.6,0.6-0.9,0.8-1.4c0.3-0.8,0.9-1.4,1.5-2.2c0-0.3,0-0.7,0-0.8c0.3-0.9,1-1.3,0.9-2.1
	c0.6-0.8-0.3-1.3-0.2-2.1c0.6-0.6,1.3-1.2,2.1-1.6c0.6-0.2,1.1-0.5,1.5-0.9c0.6-0.2,1.1,0.4,1.6,0.1c0.3-0.2,0.5-0.7,1-0.7
	c0.4-1,0.8-1.9,1.1-2.8c0.3-1,0.3-2.1,0.6-3.1c0.3-1.1-0.3-2.1-0.1-3.1c0.3-0.5,0.5-1,1-1.1c0.5-1.3,1.2-2.4,2.1-3.2
	c0.6-1.3,0.7-2.4,0-3.5C90.9,135.8,90.1,135.7,89.4,135.3z"/>
<path class="st0" d="M258.8,154.5c-0.3-0.3-0.6-0.8-0.8-1.2c-0.9-2.4-0.9-2.4-2.4-3.9c-0.1-0.1-0.1-0.2-0.2-0.2
	c0.2-0.6,0.6-1.3,0.4-1.9c-0.2-0.6-0.2-1.3-0.5-1.8c-0.4-0.4-0.7-0.8-1-1.2c-0.3-0.3-0.1-0.8-0.3-1.1c-0.2-0.3,0-0.6-0.3-0.9
	c-0.1-0.1-0.1-0.3-0.4-0.3c-0.7,1.3-1.1,2.7-1,4.3c-0.8,0.7-1,1.9-2.1,2.3c-1-0.9-2.3-1.5-3.4-2.5c0.1-0.3-0.2-0.6-0.2-1
	c0.3-0.6,0.7-1.2,1.1-1.7c-0.7-0.7-1.7-0.6-2.6-1c-0.6,0.3-1.2,0.6-1.7,0.9c-1.1-0.1-1.4,0.9-2,1.5c-0.1,0.1-0.1,0.2-0.1,0.3
	c0.1,0.1,0.1,0.2,0.2,0.2c-0.2,0.2-0.4,0.4-0.5,0.5c-0.7-0.3-1.3-0.7-1.8-1.3c-0.7,0.3-1.3,0.5-1.8,0.8c-0.6,1.1-0.8,1.4-1.8,1.8
	c-0.2,0.3,0.4,0.4,0.2,0.7c-0.1,0.1-0.2,0.2-0.3,0.3c-0.3-0.2-0.6-0.4-0.9-0.5c-0.6,1.3-1.1,2.6-2.8,3.1c-0.7-0.2-1.5,0.3-2.4,0.6
	c-1.2,0.4-2.2,1.1-3.5,1.4c0.2,0.3-0.1,0.4-0.2,0.6c-0.2,0.7-0.7,1.4-0.2,2.2c0.1,0.1,0.1,0.4,0,0.5c-0.4,0.4-0.2,0.9-0.2,1.3
	c0.1,0.5-0.3,0.9-0.3,1.4c0.1,0.5,0,1,0,1.4c0.5,0.3,0,1,0.4,1.4c0.1,0.1,0.1,0.5,0,0.6c-0.3,0.4-0.3,0.8-0.5,1.2
	c-0.2,0.3-0.3,0.6-0.7,0.7c-0.1,0-0.2,0.1-0.4,0.2c0.4,0.1,0.2,0.5,0.4,0.6c0.8,0.5,1.6,0.5,2.5,0.1c0.3-0.1,0.6-0.2,0.9-0.3
	c0.3-0.1,0.6-0.4,0.9-0.3c1,0.1,2-0.4,2.9-0.2c0.1-0.1,0.1-0.2,0.2-0.2c0.1,0,0.2,0,0.3-0.1c1.6-0.9,3.4-1.5,5.3-1.5
	c0.2,0,0.3-0.1,0.5-0.1c0.6-0.2,1.3-0.2,1.8,0.1c0.6,0.5,1.3,0.9,1.6,1.7c0.1,0.4,0.3,0.7,0.4,1.1c0.6-0.8,1.6-1.1,2.2-1.7
	c0.1,0.2,0.4,0.3,0.3,0.5c-0.4,0.6-1.1,0.9-1.2,1.7c0.4,0.1,0.3-0.2,0.4-0.3c0.1-0.2,0.2-0.4,0.6-0.2c-0.1,0.6,0.2,1.2,0.5,1.8
	c-0.2,0.4-0.4,0.7-0.5,1c0.7,0.8,1.6,1,2.6,1.3c0.2-0.3,0.6-0.4,1-0.7c0.3,0.3,0.7,0.7,1,1c0.9-0.8,1.9-1.7,3.3-1
	c0.1-0.1,0.2-0.2,0.3-0.4c0.4-0.8,1-1.5,1.7-2c0.4-0.3,0.7-0.6,1-1c0.6-1.1,0.8-1.1,2.1-1.7c0.1-0.1,0.1-0.3,0.2-0.4
	c0.7-0.7,1.4-1.4,1.7-2.4c0.9-0.9,1-2.1,1-3.3c0-0.3-0.1-0.5,0.2-0.8c0.1-0.2,0.1-0.5,0-0.6C259.6,155.4,259.3,154.9,258.8,154.5z"
	/>
<path class="st0" d="M110.8,63.4c-0.2-0.2-0.4-0.4-0.5-0.6c-0.3,0-0.6,0-0.9,0.2c-0.3,0.1-0.7,0.1-0.9-0.3c0.2-0.2,0.4-0.4,0.7-0.3
	c0,0,0.1-0.1,0.1-0.1c-0.1-0.1-0.3-0.3-0.4-0.4c0.1-0.2,0.2-0.4,0.5-0.4c0.8,0,1.2,1,2,1.1c0.1-0.5,0.5-0.1,0.7-0.3
	c-0.5-1-1.8-0.9-2.3-1.8c0.1-0.1,0.2-0.3,0.3-0.4c0.7,0.2,0.3,0.6,3.6-1c0.2-0.9,1-1.4,1.6-2c-0.3-0.2-0.2-0.5-0.4-0.7
	c0.5-0.5,0.9-0.9,1.4-1.4c0.8,0.2,1.6-0.4,2.4-0.2c0.2-0.2,0.4-0.5,0.7-0.6c-0.6,0.1-1.1-0.1-1.7,0.1c-0.5,0.2-1.1,0.1-1.6-0.2
	c-0.5-0.3-0.9-0.6-1.5-0.7c-0.6,0-1.2-0.3-1.8-0.2c-0.2,0-0.4,0-0.6-0.1c-0.5-0.2-1-0.1-1.5,0c-0.8,0.2-1.6,0.6-2.5,0.1
	c-0.5-0.2-1.2-0.2-1.7,0c-0.4,0.1-0.7,0.1-1,0.2c-0.4,0-0.7,0.4-1.1,0.2c-0.4-0.1-0.6,0.2-1,0.2c-1-0.1-1.9,0.4-2.9,0.2
	c-0.1,0-0.3,0-0.4,0.1c-0.5,0.4-1.2,0.3-1.7,0.1c-0.4-0.2-0.8-0.2-1.2-0.1c-0.5,0-0.9-0.2-1.3-0.3c-0.9,0-1.7,0.3-2.5,0.3
	c-0.3,0-0.6,0.3-0.9,0.4c-1,0.3-2,0.8-3.1,1.3c-0.6-0.3-1.3,0.3-2,0.2c-0.8-0.1-1.4,0.3-2.2,0.2c0.1,0.2,0.3,0.3,0.2,0.4
	c0,0.2-0.4,0.3-0.2,0.6c0.8,0.2,1.6,0.7,2.6,0.4c0.6-0.2,1.1-0.1,1.7-0.1c0.2,0.4,0.6,0.1,0.8,0.2c1,0.7,1.5,1.7,1.9,2.7
	c0,0.2-0.4,0.3-0.2,0.5c0.4,0.2,0.8,0.3,1.1,0.6c0,0.2-0.1,0.5,0,0.6c0.1,0.2,0.2,0.4,0.2,0.6c-0.3,0.5-0.6,1-1.1,1.3
	c-0.9,0.4-1.6,1-1.9,2c0.1,0.4,0.5,0.6,0.4,1.1c-0.1,0.3-0.3,0.6-0.5,0.9c-0.1,0.3,0.2,0.4,0.3,0.6c0.1,0.8,0.6,1.3,1.3,1.6
	c0.4,0.2,0.9,0.4,1.3,0.6c0.3,0.2,0.7,0.2,0.8,0.1c0.4-0.3,1-0.4,1.4-1c0.4-0.7,0.9-1.3,1.3-1.9c0.6-1,1.5-1.4,2.5-1.8
	c0.3-0.1,0.6-0.1,1-0.1c0.3,0,0.5-0.3,0.9-0.3c0.5,0,1-0.2,1.4-0.5c0.7-0.6,1.5-1,2.3-1.4c0.2-0.1,0.3-0.1,0.5-0.3
	c0.4,0.1,0.7-0.1,1.1,0.2c0.2,0.1,0.6,0.1,0.9,0c1.2-0.4,2.5-0.6,3.7-0.8C110.7,63.5,110.8,63.5,110.8,63.4z"/>
<path class="st0" d="M250.2,132.3c-0.5,0.3-1,0.6-1.5,0.9c-0.5,0.3-0.9,0.7-1.2,1.1c-0.4-0.5-1-0.8-1-1.4c0-0.6-0.4-1-0.8-1.4
	c-0.7-0.2-1.3,0.2-1.9,0.5c0.6,0.3,1.2,0.7,1.9,1c0,0,0,0.1,0.1,0.1c-0.1,0.2-0.4,0.2-0.6,0.4c-0.1,0.4,0.2,0.7,0.3,1
	c0.6,0.1,1.2-0.1,1.8,0.2c0.9,0.5,1.9,1,2.9,1.5c0.3,0.5,0.5,1,0.8,1.5c-0.2,0.4-0.6,0.5-1,0.8c-0.1,0.1-0.1,0.1,0,0.2
	c0.3,0,0.5,0.3,0.7,0.3c0.3,0,0.5-0.4,0.9-0.2c0.3,0.3,0.6,0.7,1,1.1c0.3,0,0.5,0,0.8,0c0.3,0,0.5,0.4,0.8,0.2
	c0.6-0.3,0.7-0.9,1-1.4c0.3-0.1,0.5-0.4,0.9-0.3c1.1,0.4,2,1.1,2.4,2.2c1.1,0.7,2.2,1,3.4,1.2c-0.3-0.3-0.5-0.6-0.9-0.8
	c-0.5-0.3-1.1-0.6-1.4-1.1c-0.3-0.7-0.9-1.1-1.2-1.8c0.1-0.2,0.4-0.3,0.4-0.6c-0.4-0.2-0.3-0.8-0.7-1.1c-0.4-0.2-0.9-0.5-1.3-0.8
	c-0.8-0.6-1.7-1.2-2.7-1.5C252.6,133.5,251.3,132.9,250.2,132.3z"/>
<path class="st0" d="M231.6,128.5c-0.2-0.3-0.4-0.7-0.3-1.2c0-0.4,0.2-0.7,0.5-0.9c0.3-0.3,0.5-0.5,0.6-0.8c-0.5-0.5-0.9-1-1.4-1.4
	c-0.5-0.1-0.7,0.3-0.9,0.7c-0.3,0.5-0.8,0.9-1.4,1.1c-0.3,0.1-0.5,0.3-0.7,0.3c-0.2,0.4-0.4,0.9-0.6,1.3c-0.6,0.3-1,0.5-1.5,0.7
	c-0.3,0.4-0.3,0.9-0.7,1.1c-0.3-0.1-0.6-0.3-0.8-0.4c-0.1,0.1-0.2,0.1-0.3,0.2c-0.1,0.2-0.3,0.5-0.4,0.7c0.5,1.2,0.5,2.5,1.2,3.6
	c0.5,0.1,1.1,0.2,1.6,0.3c0.6,0.2,1.1,0.1,1.5-0.1c0.5,0.2,0.9,0.4,1.3,0.7c0.1-0.4,0.4-0.4,0.7-0.5c0.2-1.3,1.3-2.2,1.4-3.5
	c0.2-0.5,0.8-0.5,1.1-0.9C232,129.3,231.8,128.9,231.6,128.5z"/>
<path class="st0" d="M82.1,65.2c-0.7-0.2-1-0.7-1.1-1.4c-0.1-0.3,0.3-0.3,0.2-0.6c-0.5-0.7-1.4-0.5-2.2-0.9c-0.3-0.2-0.6-0.8-1-1.2
	c-0.4,0.2-0.7,0.4-1.1,0.5c-0.6-0.3-1.1-0.5-1.6-1c-0.3-0.3-0.6-0.5-1-0.4c-0.7,0.2-1.6,0.2-2.1,1c-0.1,0.2-0.3,0.4-0.5,0.6
	c-0.1-0.3-0.3-0.3-0.3-0.4c0.4-0.4,0.8-0.8,1.3-1.3c-0.8-0.3-1.2,0.2-1.8,0.1c-0.6,0.4-1.2,0.8-1.8,1.3c-0.2,0.2-0.4,0.5-0.4,0.8
	c0.2,0.1,0.4,0.2,0.6,0.3c0.5,0.2,0.9,0.4,1.5,0.1c0.2-0.1,0.7-0.2,0.9,0c0.6,0.3,1.3,0.1,1.7,0.4c0.3-0.1,0.5-0.2,0.7-0.3
	c0.2-0.1,0.5-0.3,0.7-0.4c0.1,0.1,0.2,0.2,0.4,0.2c0.5,0.4,1.2,0.6,1.5,1.3c0.3,0.7,0.8,1.5,1.7,1.7c0.1,0,0.2,0.1,0.2,0.2
	c-0.3,0.5-0.9,0.3-1.3,0.7c-0.2-0.3-0.6-0.3-0.9-0.5c-0.6,0.3-1.3,0.6-1.6,1.3c-0.9,0.2-1.7-0.4-2.4-0.2c-0.3,0.2-0.7,0.3-0.8,0.6
	c0.2,0.1,0.4,0.2,0.6,0.3c0.8-0.3,1.6-0.6,2.5-0.4c0.3,1.3,1.5,1.7,2.6,2.4c0.4-0.1,1,0.2,1.3-0.3c-0.4-0.3-0.9-0.6-1.3-0.9
	c0.1-0.1,0.2-0.2,0.3-0.3c0.7-0.1,1.2,0.4,1.8,0.6c0.3-0.3,0.4-0.6,0.5-1c-0.2-0.4-0.4-0.9-0.7-1.3c0.3-0.3,0.6-0.4,0.9-0.5
	c0.6,0.3,1.2,0.6,1.7,0.9c0.6-0.2,0.8-0.7,1.2-1.1C82.7,65.6,82.5,65.3,82.1,65.2z"/>
<path class="st0" d="M168.5,143.1c-0.2,0.7-0.4,1.4-0.9,1.8c-0.7,0.5-1.3,1.2-1.9,1.7c-0.5-0.1-0.9,0.3-1.4,0.3c0,0.1,0,0.2,0,0.3
	c-0.6,0.6-0.6,1.4-0.4,2.1c0.1,0.5,0.1,1,0.2,1.4c-0.5,0.7-0.9,1.4-1.3,2.1c0,0.9,0.2,1.9,0.5,2.7c0.4,0.2,0.8,0.4,1.1,0.6
	c0.6-0.1,1-0.5,1.7-0.5c-0.1-0.3,0.1-0.4,0.2-0.5c0.2-0.3,0.4-0.7,0.5-1c0.1-1.1,0.5-2.2,0.9-3.3c0.6-1.6,1.2-3.2,1.7-4.8
	c0.1-0.4,0.2-0.8,0.1-1C169,144.3,169,143.6,168.5,143.1z"/>
<path class="st0" d="M48.6,61.6c0.5-0.2,1-0.6,1.6-0.4c-0.1,0.1-0.2,0.2-0.3,0.3c0.4,0.1,0.8-0.1,1,0.3c0,0.1,0.1,0.1,0,0.2
	c-0.1,0.1-0.2,0.2-0.2,0.2c-0.3,0.1-0.7-0.1-1.2,0.2c0.9,0,1.7,0,2.5,0c0,0,0,0.1-0.1,0.1c0.1,0.1,0.2,0.1,0.4,0.2
	c-0.1,0.1-0.2,0.3-0.3,0.3c-0.9,0.2-1.9,0-2.9,0.1c0.7,0.4,1.3,0.7,2.1,1.1c0.7-0.3,1.3,0.4,2.1,0.2c0.5-0.5,1.2-0.4,1.7-0.8
	c0.1-0.1,0.4-0.1,0.5,0c0.3,0.2,0.8,0.1,1.1,0.3c0.4,0.2,0.6,0.1,1,0c0.7-0.2,1.3-0.6,1.9-0.8c-0.4-0.5-1-0.4-1.3-0.9
	c0.5-0.4,0.7-1,0.9-1.6c-0.3,0-0.6,0-1.1,0c-0.2,0.3-0.6,0.6-1,1.1c-0.1,0-0.2-0.2-0.3-0.3c0.1-0.1,0.1-0.2,0.2-0.2
	c-0.2-0.1-0.2-0.4-0.2-0.4c-0.5,0-0.8,0.4-1,0.5c-1.2-0.2-2.1-0.7-3.2-0.8c0.4,0,0.7,0,1.2,0c-0.6-0.5-1.2-0.5-1.8-0.6
	c-1.6-0.4-2-0.1-3.3,0.5c-0.8,0.4-1.6,0.9-2.3,1.2c0.2,0.3,0.5,0.5,0.8,0.8C47.6,62,48.1,61.7,48.6,61.6z"/>
<path class="st0" d="M220.7,135.3c0.2-0.6-0.3-1-0.2-1.5c-0.5-0.4-0.9-0.6-1.1-1.1c-0.2-0.5-0.5-1-1.1-1.2c-0.1,0-0.1-0.2-0.2-0.2
	c-0.1-0.2,0.2-0.3,0.1-0.5c0.1-0.4-0.4-0.5-0.4-0.9c-0.4-0.2-0.8-0.4-1.1-0.6c-0.4-0.4-0.9-0.6-1.3-1c-0.2-0.2-0.5-0.4-0.6-0.7
	c-0.5-0.9-1.6-1.8-2.8-2.1c-0.3-0.1-0.6-0.5-0.9-0.2c0.3,1,1,1.6,1.7,2.2c0.5,0.5,1,1.1,1.3,1.8c0.2,0.5,0.5,1,0.9,1.4
	c0.6,0.7,1.1,1.4,1.3,2.3c0.1,0.5,0.4,1,0.7,1.3c0.5,0.5,1,0.9,1.3,1.5c0,0.1,0.2,0.2,0.3,0.2c0.3,0.1,0.5,0.3,0.7,0.4
	C220.1,136.2,220.5,135.8,220.7,135.3z"/>
<path class="st0" d="M77.4,56.9c-0.5,0.4-1.1,0.4-1.6,0.5c-0.6,0.2-1.2-0.4-1.9-0.2c0.4,0.2,0.8,0.4,1.2,0.6c0.3,0,0.7,0.1,1-0.1
	c0.7-0.3,1.2-0.1,1.8,0.1c0.2,0.1,0.5,0.3,0.7,0.4c0.7-0.5,1.4-1,2.3-1.1c0.3-0.5,0.8-0.1,1.2-0.4c0.4-0.2,0.7-0.5,1.1-0.7
	c0.5-0.2,1-0.5,1.6-0.5c0.3,0,0.7-0.1,1-0.2c0.5-0.1,0.9-0.3,1.4-0.3c0.4,0,0.9-0.1,1.2-0.3c1.1-0.6,2.3-1,3.5-1.7
	c-0.5,0-0.8-0.1-1.1,0c-0.5,0.3-1,0.2-1.6,0.2c-0.5,0-1,0.3-1.6,0.2c-0.6-0.1-1.2,0-1.9,0c-0.6,0-1.1,0-1.7,0.2
	c-0.6,0.2-1.2,0-1.8,0.2c-0.5,0.2-1.1,0.1-1.6,0c-0.6,0-1.1,0.4-1.7,0.2c-0.2,0-0.4-0.2-0.6,0.2c0.5,0,0.9,0,1.3,0
	c0.4-0.1,0.8,0.2,1.2,0.2c0.6,0,1.2-0.1,1.7-0.3c0.1,0.1,0.2,0.2,0.3,0.3c-0.1,0.3-0.6,0.3-0.8,0.6c-0.5,0-0.9,0-1.4,0
	c-0.5,0-1,0.2-1.4,0c-0.7-0.4-1.1-0.1-1.8,0.2c0.3,0.2,0.6,0.4,0.8,0.6c-0.6,1-1.4-0.2-2,0.3C76.8,56.6,77.3,56.4,77.4,56.9z"/>
<path class="st0" d="M245.1,94.7c-0.3-0.9-1-1.6-0.5-2.6c-0.2-0.5-0.5-1-0.7-1.5c-0.5-0.1-0.8-0.7-1.1-0.7c-0.3,0.2-0.5,0.2-0.6,0.3
	c0.4,0.8,0.8,1.6,1.2,2.3c-0.2,0.3-0.3,0.6-0.4,0.8c-0.1,0.2-0.2,0.4-0.3,0.4c-0.4,0.1-0.6,0.4-0.8,0.6c-0.5,0.4-1,0.7-1.6,1
	c-0.3-0.1-0.6-0.4-0.9-0.3c-0.5,0.5-0.9,1-1.7,1.2c0.5,0.2,0.9,0.6,1.3,0.1c0.7,0,1.4-0.4,2.2-0.2c0.5,0.2,0.5,0.8,0.9,1
	c0.1-0.4,0.2-0.9,0.4-1.3C243.5,96.1,244.7,96.1,245.1,94.7z"/>
<path class="st0" d="M121.9,80.4c-0.2,0.2-0.6,0.2-0.9,0.4c0.3,0.2,0.6-0.1,0.8-0.1c1.3-0.1,2.6-0.6,3.9-0.5c0,0,0.1-0.1,0.1-0.1
	c-0.1-0.1-0.3-0.3-0.4-0.4c0.2-0.5,0.8-0.5,1.1-0.9c-0.1-0.1-0.2-0.2-0.3-0.3c-0.3-0.1-0.5,0.1-0.8,0.2c-0.6-1.1-0.8-2.3-1.9-3
	c-0.3,0-0.6,0-0.7-0.4c0.3-0.3,0.6-0.5,0.9-0.8c-0.4-0.2-0.9,0.1-1.1-0.4c0.2-0.2,0.2-0.2,0-0.3c-0.2,0.1-0.5,0.2-0.6,0.3
	c-0.2,0.4-0.4,0.7-0.5,1.1c0.1,0.3,0.3,0.5,0.4,0.8c-0.2,0.1-0.2,0.2-0.2,0.4c0.2-0.1,0.4,0.2,0.6,0.2c0.1-0.1,0.2-0.2,0.4-0.2
	c0.4,0.3,0.4,0.9,0.6,1.3c-0.3,0.6-1,0.4-1.3,0.7c0.1,0.1,0.2,0.2,0.2,0.3c0,0.4-0.4,0.4-0.6,0.5c0.4,0.5,1.2,0.1,1.5,0.6
	C122.7,80.4,122.2,80.2,121.9,80.4z"/>
<path class="st0" d="M136,56.9c0.1,0.1,0.4,0.3,0.7,0.7c-0.6,0-1,0-1.4,0c0,0.1,0,0.2,0,0.3c0.7,0.1,1.2,0.7,1.9,1
	c0.4-0.7,1.2-1.1,1.5-2c0.2,0,0.4,0,0.7,0c0.2,0.3,0.5,0.4,0.5,0.8c0,0.1-0.3,0.1-0.2,0.3c0.5,0.2,0.9-0.5,1.4-0.1
	c0,0.1,0.1,0.3,0.1,0.4c0.1-0.2,0.4-0.2,0.6-0.4c-0.3-0.1-0.5-0.3-0.6-0.5c-0.2,0-0.4,0-0.6,0c-0.3-0.4-0.8-0.6-1.2-0.8
	c0-0.2,0-0.3,0.2-0.4c0.3,0.5,0.9,0.1,1.3,0.4c0.6,0.4,1.2-0.1,1.8-0.2c0.2,0,0.3-0.2,0.2-0.5c-1,0-2,0-2.9,0
	c-0.3-0.2-0.3-0.4-0.6-0.4c0,0.2-0.1,0.3-0.1,0.4c-0.2,0.2-0.4-0.1-0.6,0.2c-0.1,0.2,0.1,0.5-0.1,0.8c-0.4-0.2-0.3-0.6-0.4-0.8
	c-0.2,0-0.4-0.1-0.5,0c0,0.1-0.1,0.3-0.1,0.4c-1.4,0.1-2.7-0.5-4.1-0.1c0,0.2,0,0.3,0,0.5c0.7,0.4,1.4,0.6,2.1,0.7
	C135.8,57.2,135.6,56.9,136,56.9z"/>
<path class="st0" d="M267.5,172.9c-0.6,0.5-1.4,0.9-2.1,1.2c-1.1,0.4-2.1,0.8-3.1,1.3c-0.5,0.3-1.1,0.5-1.3,1.2
	c0.1,0.1,0.4,0,0.5,0.2c1,0.2,1.8-0.1,2.7-0.6c0.6-0.3,1.1-0.7,1.5-1.2c0.3-0.3,0.6-0.6,1.1-0.6c0.4,0,0.6-0.2,0.9-0.3
	c0.5-1,1.5-1.1,2.3-1.6c0-0.2,0.2-0.3,0.3-0.6c-0.2-0.3-0.5-0.4-0.5-0.8C268.9,171.8,268.2,172.3,267.5,172.9z"/>
<path class="st0" d="M236.5,131.7c-0.8-0.1-1.4,0.2-2,0.3c-0.3-0.3-0.6-0.5-0.9-0.8c0.2-0.3,0.2-0.7,0.5-0.9c0.5-0.1,1-0.5,1.4-0.3
	c0.6,0.3,1,0.5,1.3,0.7c0.3-0.2,0.7-0.3,0.9-0.5c0.2-0.3,0.3-0.7,0.5-1.1c-0.5,0.2-1,0.4-1.3,0.6c-0.2,0.1-0.4,0.2-0.6,0.1
	c-0.6-0.4-1.4-0.1-1.9-0.4c-0.4,0.4-0.7,0.7-0.9,0.9c-0.4,0.8-0.4,1.4-0.4,2.1c0,0.3-0.2,0.6-0.3,0.7c-0.2,0.3-0.3,0.6-0.5,0.8
	c0.1,0.5,0.4,0.7,0.5,0.9c0.1,0.5-0.3,0.7-0.1,1c0.1,0.2,0.1,0.4,0.2,0.5c0.3-0.2,0.6-0.3,0.8-0.4c-0.2-0.6-0.3-1.1-0.5-1.7
	c0.2-0.2,0.5-0.5,0.8-0.7c0.3,0.5,0.4,0.7,0.5,1.2c0.3,0.3,0.6,0.6,1.1,0.7c0-0.4,0-0.8,0-1.1c-0.2-0.5-0.4-0.8-0.6-1.2
	C235.4,132.3,235.9,132,236.5,131.7z"/>
<path class="st0" d="M163.8,62.8c-0.2-0.4-0.7-0.4-0.9-0.7c-0.2-1.1,0.8-1.6,1.4-2.3c0.2,0,0.3,0.1,0.4,0c0.7-0.5,1.4-0.6,2.2-0.7
	c0.4,0,0.8-0.1,1.2-0.2c0.2,0,0.4-0.2,0.6-0.3c-0.1-0.1-0.2-0.2-0.3-0.3c-0.2,0-0.5,0.1-0.7,0c-0.3-0.1-0.4,0.4-0.6,0.1
	c-0.1-0.1-0.4,0.1-0.5,0.2c-0.4,0.2-0.8,0.2-1.2,0.2c-0.6,0-1.2,0-1.8,0c-0.3,0.2-0.4,0.5-0.7,0.4c-0.3-0.1-0.4,0.1-0.5,0.3
	c-0.2,0.4-0.6,0.6-0.9,0.9c0.1,0.1,0.1,0.2,0.2,0.2c-0.1,0.4-0.7,0.3-0.8,0.7c0.1,0.1,0.1,0.1,0.2,0.2c-0.1,0.2-0.5,0.3-0.4,0.7
	c0.5,0.2,0.9,0.3,1.3,0.5C162.6,62.9,163.2,62.9,163.8,62.8z"/>
<path class="st0" d="M275.3,168.8c-1.3-1.3-1.3-1.3-1-2.6c-0.2-0.2-0.4-0.4-0.6-0.6c0.1,0.4-0.1,0.9,0.2,1.4
	c0.3,0.5-0.1,1.2-0.2,1.7c-0.7,0.4-1.5,0.6-1.9,1.4c0.2,0.3,0.2,0.6,0.4,0.8c-0.3,0.3-0.6,0.7-1.1,0.9c0.2,0.2,0.3,0.2,0.4,0.4
	c0.5-0.4,1.1-0.6,1.6-1.1c0.7-0.6,1.3-1.3,2.2-1.6c0.6-0.2,0.6-0.7,0.8-1.1c-0.2,0.1-0.3,0.2-0.5,0.2
	C275.5,168.6,275.4,168.7,275.3,168.8z"/>
<path class="st0" d="M228.7,139.4c0.1-0.1,0.2-0.2,0.3-0.4c-0.8-0.2-1.3-0.9-2.1-0.7c-0.2-0.2-0.4-0.5-0.6-0.6
	c-0.3-0.1-0.6-0.5-0.9-0.2c-0.5,0.4-1.2,0.1-1.7,0.5c-0.5-0.8-1.3-0.8-2-1c-0.6-0.1-1.2,0-1.5,0.7c0.6,0.3,1.2,0.4,1.7,0.7
	c0.4,0.2,0.6,0.2,1,0c0.3-0.1,0.6,0,0.9,0c0.6,0.1,1,0.6,1.6,0.6C226.6,138.8,227.6,139.1,228.7,139.4z"/>
<path class="st0" d="M114.3,66.6c-0.4,0.2-0.9,0.5-1.5,0c-0.1-0.1-0.5-0.1-0.6,0c-0.5,0.5-1.3,0.3-1.8,0.7c0,0.3-0.2,0.5-0.2,0.7
	c0.3,0.2,0.4-0.1,0.6-0.2c0.5,0.3,1,0.6,1.4,0.9c1.4-0.4,2.9-0.6,4-1.6c0-0.1-0.1-0.1-0.1-0.2C115.7,66.5,115.1,66.2,114.3,66.6z"/>
<path class="st0" d="M57.2,110.4c-0.5-0.5-0.5-0.5-1.3-0.8c-0.4-0.2-0.9-0.3-1.2-0.6c-0.8-0.8-1.9-0.9-2.8-1.3
	c-1.3,0-2.7-0.2-3.8,0.8c0,0.1,0,0.2,0.2,0.3c0.4-0.2,0.9-0.4,1.4-0.6c0.2-0.1,0.4-0.1,0.6-0.1c0.6,0.2,1.3,0.3,1.8,0.7
	c0.5,0.4,1.2,0.7,1.7,1.2c-0.2,0.2-0.3,0.4-0.4,0.5c0.3,0.1,0.6,0.1,0.7-0.1C55.2,110.7,56.2,110.9,57.2,110.4z"/>
<path class="st0" d="M233.8,112.5c-0.3,0.1-0.3-0.3-0.6-0.2c0,0-0.1,0-0.1,0c-0.1,0.1-0.2,0.2-0.3,0.3c0.1,0.8,0,1.5-0.5,2.2
	c0.2,0.4,0.4,0.8,0.6,1.2c0.9,0.3,1,1.4,1.9,1.6c0.6-0.4,1.1-0.2,1.6,0.2c0.1,0,0.1,0,0.2-0.1c0-0.1,0-0.3,0-0.4
	c0,0-0.1,0.1-0.1,0.1c-0.1-0.3-0.3-0.5-0.4-0.8c-0.5-0.2-0.5,0.5-0.7,0.4c-0.5-0.5-0.9-0.9-1.4-1.4c0.2-0.5,0.3-1.1,0.7-1.5
	C234.3,113.6,234,113.1,233.8,112.5z"/>
<path class="st0" d="M79.4,81.2c-0.1,0.2-0.4,0.5-0.6,0.6c-0.7,0.3-0.9,1.1-1.5,1.4c0.5,0.1,1,0,1.4,0.1c1.4,0.4,2.3,0.2,3.6-0.4
	c-0.3-0.3-0.3-0.7-0.5-1c-0.7-0.1-1.4-0.2-1.7-1.2c0.1-0.1,0.4-0.3,0.6-0.5C80.1,80.4,79.6,80.6,79.4,81.2z"/>
<path class="st0" d="M118.6,76.9c-0.4-0.1-0.7,0.2-1.1,0.4c0.2,0.3,0.4,0.4,0.5,0.6c-0.2,0.4-0.4,0.9-0.6,1.3
	c0.1,0.2,0.2,0.4,0.4,0.7c0.7-0.7,1.6-0.7,2.4-1.1c0-0.4,0-0.8,0-1.2c0.1-0.4,0.5-0.6,0.7-0.9c0,0,0-0.1,0-0.1
	c-0.1-0.1-0.2-0.2-0.4-0.3c-0.4,0-0.9,0-1.3,0C119,76.5,118.8,76.7,118.6,76.9z"/>
<path class="st0" d="M70.3,59.1c1.5-0.2,3,0.4,4.5,0.2c0.1,0,0.3-0.1,0.4,0c0.7,0.5,1.2,0.1,1.7-0.2c0.2-0.1,0.4-0.2,0.6-0.3
	c-0.3,0.1-0.3-0.4-0.6-0.4c-0.8,0-1.6,0-2.4,0c-0.2,0-0.4,0.1-0.6,0.2c-0.2,0.1-0.5,0.1-0.8-0.1c-0.5-0.3-1.1-0.5-1.6-0.8
	c-0.4,0.2-0.8,0.4-1.2,0.6C70.5,58.6,70,58.7,70.3,59.1z"/>
<path class="st0" d="M235.9,122.5c-0.3,0.2-0.4,0.5-0.4,0.8c0.5,0.3,0.7-0.3,1.1-0.1c0.6,0.5,0.5,1.4,1.3,2.1
	c0.1-0.6,0.5-0.2,0.8-0.4c-0.1-0.3-0.5-0.3-0.4-0.7c0.2-0.1,0.2-0.4,0.5-0.3c0.2,0.1,0.3,0.3,0.6,0.5c0.1-1.3-0.6-2.2-1-3.3
	c0.1,1.1-0.8,1.3-1.3,1.7C236.6,122.7,236.3,122.3,235.9,122.5z"/>
<path class="st0" d="M242.3,88.4c0.5,0.1,1.1,0.3,1.6,0.4c0-0.2,0-0.4,0.1-0.6c0.3-0.1,0.6-0.3,0.9-0.4c-0.3-0.3-0.6-0.5-1-0.6
	c-0.5-0.2-1.1-0.1-1.5-0.5c-0.4-0.4-0.9-0.6-1.4-0.9c0.2,0.5,0.5,1,0.8,1.5c-0.4,0.1-0.4,0.6-0.7,0.9c0.4,0.3,0.5,0.8,0.9,1.1
	c0.1,0.1,0.1,0.1,0.2,0c0.1-0.3,0-0.5-0.2-0.7C242,88.5,242.1,88.3,242.3,88.4z"/>
<path class="st0" d="M71.2,182.8c-0.5,0.2-0.3,0.8-0.6,1.1c0.3,0.3,0.6,0.6,0.9,0.9c0.4-0.2,0.7,0.1,1,0.3c0.3,0.2,0.7,0.2,0.8,0.1
	c0.4-0.3,0.8-0.2,1.1-0.2c0.3,0,0.6,0,1,0c-1.1-0.3-1.9-1-2.7-1.5C72.2,183.2,71.8,182.9,71.2,182.8z"/>
<path class="st0" d="M240,82.1c0.1-0.2,0-0.3-0.1-0.4c-0.6-0.8-1.5-1.2-2.2-1.7c-0.3-0.2-0.6-0.4-0.7-0.7c-0.2-0.5-0.6-1-1-1.3
	c-0.2,0-0.4-0.1-0.5,0.1c0.6,1,1.4,1.6,2.1,2.4c0.6,0.6,1,1.4,1.4,2.2c0.4,0.8,0.6,1.6,1.5,2.2c0.2-0.1,0.4,0.1,0.7-0.1
	c-0.4-1-1.5-1.5-1.8-2.3c0.1-0.2,0.2-0.4,0.2-0.6C239.8,81.8,239.8,82.3,240,82.1z"/>
<path class="st0" d="M57.7,112.5c0.7-0.4,1.1,0,1.6,0.2c1-0.2,1.9-0.5,2.8-0.7c-1.3-1-1.6-1.1-3.9-0.9c0.1,0.2,0.3,0.5,0.4,0.7
	c-0.2,0.1-0.3,0.3-0.5,0.3c-0.2,0-0.3,0-0.5,0.2c-0.6-0.3-0.6-0.3-1.3,0C56.8,112.3,57.3,112.7,57.7,112.5z"/>
<path class="st0" d="M248,171.7c-0.4,0.2-0.7,0.2-1.1,0c-0.3-0.1-0.6-0.3-1-0.3c0,0.5,0,1,0,1.5c-0.1,0.3-0.5,0.5-0.5,0.8
	c0.1,0.2,0.2,0.2,0.3,0.2c0.1,0,0.2,0.2,0.4,0.2c1-0.5,2-1,2.6-2.1C248.6,171.7,248.3,171.5,248,171.7z"/>
<path class="st0" d="M196.8,122.9c0.1,0.5,0.2,1,0.3,1.5c0.1,0.1,0.2,0.2,0.3,0.3c0.3-0.2,0.6-0.3,1.1-0.3c-0.3-0.4,0.1-0.4,0.1-0.6
	c-0.2-1-0.9-1.7-1.4-2.5C196.9,121.8,196.7,122.3,196.8,122.9z"/>
<path class="st0" d="M62.6,61.7c0.7,0.3,1.2-0.3,1.8-0.5c0.6-0.1,0.6-0.9,1-1.4c-0.5-0.3-0.7,0.2-1.1,0.2c-0.4,0-0.7,0.2-1.1,0.3
	c0,0.3-0.2,0.4-0.4,0.6c-0.4,0-0.9-0.5-1.4-0.1C61.8,61.1,62.5,61.1,62.6,61.7z"/>
<path class="st0" d="M72.9,55.7c0.7,0.1,1.3,0.4,2.1,0.3c0.3-0.5,1-0.5,1.4-1c-0.5-0.4-1-0.8-1.7-0.3c-0.8-0.1-1.4,0.5-2.1,0.8
	C72.7,55.6,72.8,55.7,72.9,55.7z"/>
<path class="st0" d="M66.8,67.1c-0.6,0.1-1,0.7-1.4,1.1c0.1,0.1,0.2,0.2,0.3,0.4c0.6-0.2,1.1-0.3,1.7-0.5c0.4,0.2,0.8,0.4,1.2,0.6
	c0.1-0.2,0.2-0.5,0.3-0.7C68.3,67.4,67.6,67,66.8,67.1z"/>
<path class="st0" d="M231.2,107.2c0.2,0.4,0.4,0.7,0.5,1.1c0.2-0.1,0.3,0.2,0.5,0.2c0-0.5,0.3-0.9,0.3-1.4c0.5-0.5-0.2-0.9-0.1-1.5
	C231.7,106,231.6,106.8,231.2,107.2z"/>
<path class="st0" d="M26,82.3c-0.2-0.9-0.7-1.5-1.6-1.9c-0.2,0.1-0.4,0.2-0.6,0.3c0.1,0.9,0.9,1.1,1.5,1.6
	C25.5,82.4,25.8,82.5,26,82.3z"/>
<path class="st0" d="M66.2,61.1c0.3-0.2,0.6-0.3,0.9-0.5c0.4,0,0.8,0,1.3,0c0.2-0.3,0.6-0.2,0.8-0.7c-0.4,0.2-0.5-0.3-0.9-0.2
	c-0.8,0.2-1.7,0.2-2.4,0.9c-0.1,0.1-0.1,0.1,0,0.1C66,60.9,66.1,61,66.2,61.1z"/>
<path class="st0" d="M273.1,153.2c0.2,0,0.3,0,0.4-0.1c0-0.1,0-0.2-0.1-0.3c-0.3-0.4-0.7-0.8-1.1-1.1c-0.4-0.3-0.5-0.9-0.8-1.3
	c-0.2-0.2-0.3-0.4-0.5-0.7c-0.1-0.1-0.1-0.1-0.2,0c0,0.3,0,0.6,0,0.8C271.5,151.7,272.4,152.4,273.1,153.2z"/>
<path class="st0" d="M239.8,139.5c-0.6-0.4-1.3-0.6-2-0.2c-0.7,0.3-1,1-1.3,1.6c0.9-0.2,1.6-1,2.7-1.3
	C239.1,139.5,239.4,139.5,239.8,139.5z"/>
<path class="st0" d="M262.9,135.1c-1.3,1.3-1.3,1.3-3.1,1.7c0.4,0.2,0.8,0.4,1.2,0.6C261.7,136.7,262.9,136.5,262.9,135.1z"/>
<path class="st0" d="M237.6,97.1c-0.2,0.2-0.1,0.5-0.4,0.6c0.6,0.5,1.1,1.1,1.3,1.9c0.3-0.3,0.5-0.5,0.5-0.8c0-0.3-0.4-0.5-0.2-0.9
	C238.3,97.6,237.9,97.4,237.6,97.1z"/>
<path class="st0" d="M77.6,181.1C77.6,181.1,77.5,181.1,77.6,181.1c-0.2,0.3-0.6,0-0.8,0.3c0.1,0.1,0.1,0.2,0.2,0.2
	c-0.1,0.1-0.3,0.1-0.6,0.2c0.4,0,0.6,0.3,1,0.3c0,0,0-0.3,0.2-0.1c0,0.1,0,0.2,0.1,0.3c0.1,0,0.2,0,0.4,0c0.4-0.2,0.5-0.7,1.1-0.8
	c-0.1-0.1-0.2-0.2-0.3-0.3C78.5,181.2,78,181.5,77.6,181.1z"/>
<path class="st0" d="M221.8,111.5c0,0.1,0,0.3,0,0.4c0.2,0.2,0.4,0.4,0.6,0.6c0.7-0.4,0.8-1,1.1-1.5
	C222.9,110.9,222.3,111,221.8,111.5z"/>
<path class="st0" d="M232.9,120.5c-0.2-0.2,0.1-0.5-0.2-0.7c-0.8,0.6-1.3,1.4-2,2.4C232,122.1,232.1,121,232.9,120.5z"/>
<path class="st0" d="M241,131c0.1-0.2,0.2-0.4,0.4-0.7c-0.4-0.3-0.2-0.8-0.6-1.1c0.2-0.2,0.4-0.4,0.6-0.6c0.1-0.1,0.1-0.1,0-0.2
	c-0.1,0-0.3,0-0.5,0c-0.3,0.2-0.4,0.6-0.5,0.9c0.1,0.1,0.2,0.2,0.2,0.4c-0.1,0.3-0.3,0.5-0.4,0.8C240.5,130.6,240.6,131,241,131z"/>
<path class="st0" d="M132.6,91.5c0-0.4,0-0.9,0-1.3c-0.2-0.2-0.3-0.4-0.4-0.3c-0.3,0.2-0.5,0.4-0.8,0.6c0.2,0.5,0.4,1,0.5,1.4
	C132.1,91.5,132.5,91.8,132.6,91.5z"/>
<path class="st0" d="M135.2,93.1c0.6,0.3,1.3,0.6,1.9,1c0-0.4,0.2-0.6,0.3-1C136.6,92.9,135.9,92.6,135.2,93.1z"/>
<path class="st0" d="M62.7,63.6c-0.8-0.7-1.4-0.1-2.2,0.2c0.2,0.2,0.4,0.4,0.6,0.6C61.7,64.1,62.2,63.9,62.7,63.6z"/>
<path class="st0" d="M146.7,95.9c0.1,0,0.3-0.1,0.5-0.2c-0.9-0.4-1.8-0.3-2.9-0.3C145.2,95.9,146,96.2,146.7,95.9z"/>
<path class="st0" d="M233.5,139.1c0.2,0.2,0.3,0.5,0.5,0.7c0.5-0.3,1-0.3,1.6-0.4c-0.6-0.4-1.2-0.5-1.8-0.6
	C233.7,139,233.6,139.1,233.5,139.1z"/>
<path class="st0" d="M230.2,139.5c0.2,0.1,0.5,0.2,0.8,0.4c0.3-0.3,0.8-0.3,1.2-0.4c-0.1-0.1-0.3-0.2-0.4-0.3c-0.4,0-0.8,0-1.3,0
	C230.4,139.2,230.3,139.3,230.2,139.5z"/>
<path class="st0" d="M263.4,135.4c0.2-0.2,0.2-0.4,0.1-0.6c-0.6-0.7-1.2-1.2-2.1-1.3C262.2,134,263,134.5,263.4,135.4z"/>
<path class="st0" d="M238,119.8c0.2,0,0.4,0.1,0.5-0.1c-0.4-0.5-0.6-1.2-1.5-1.2C237.2,119.1,237.6,119.4,238,119.8z"/>
<path class="st0" d="M240.5,97.4c0-0.1,0-0.2,0-0.4c-0.5-0.1-0.8,0.1-1.2,0.4c0.4,0.1,0.1,0.6,0.7,0.6
	C240.1,97.9,240.3,97.6,240.5,97.4z"/>
<path class="st0" d="M52.9,112.2c0.6,0.7,1.2,0.6,1.9,0.5C54.3,112.1,53.7,112,52.9,112.2z"/>
<path class="st0" d="M242.9,133.9c-0.7,0.1-1.3-0.5-2.1-0.1C241.5,134.4,242.2,134.3,242.9,133.9z"/>
<path class="st0" d="M284.1,147.9c-0.1,0.1-0.2,0.2-0.5,0.5c0.5,0.1,0.3,0.5,0.6,0.6c0.3-0.2,0.7-0.2,0.9-0.6
	C284.7,148.3,284.4,148.1,284.1,147.9z"/>
<path class="st0" d="M153.8,95c-0.4,0.5-0.9,0.7-1.4,0.6c-0.1,0.4,0.2,0.4,0.3,0.6c0.3-0.2,0.7-0.3,1-0.5
	C153.4,95.5,153.9,95.4,153.8,95z"/>
<path class="st0" d="M63.3,112.1c-0.1,0.1-0.2,0.2-0.3,0.3c0.4,0.3,0.4,0.3,1,0.3c0.1-0.2,0.4-0.3,0.3-0.6
	C63.9,112,63.6,112.1,63.3,112.1z"/>
</svg>
