<svg xmlns="http://www.w3.org/2000/svg" width="20" height="20" viewBox="0 0 20 20"><linearGradient id="a" gradientUnits="userSpaceOnUse" x1="9.521" y1="19.258" x2="9.521" y2="-.22"><stop offset="0" stop-color="#fff200"/><stop offset="1" stop-color="#f15a29"/></linearGradient><path d="M9.189 18.08l-1.622 1.622a9.984 9.984 0 0 0 1.931.287l1.978-1.978a7.796 7.796 0 0 1-2.287.069z" fill="url(#a)"/><linearGradient id="b" gradientUnits="userSpaceOnUse" x1="7.104" y1="19.258" x2="7.104" y2="-.22"><stop offset="0" stop-color="#fff200"/><stop offset="1" stop-color="#f15a29"/></linearGradient><path d="M6.974 17.492l-1.452 1.452a9.918 9.918 0 0 0 1.585.632l1.578-1.578a8.18 8.18 0 0 1-1.711-.506z" fill="url(#b)"/><linearGradient id="c" gradientUnits="userSpaceOnUse" x1="5.194" y1="19.258" x2="5.194" y2="-.22"><stop offset="0" stop-color="#fff200"/><stop offset="1" stop-color="#f15a29"/></linearGradient><path d="M5.206 16.458L3.81 17.854c.418.33.862.627 1.329.888l1.439-1.439a8.402 8.402 0 0 1-1.372-.845z" fill="url(#c)"/><linearGradient id="d" gradientUnits="userSpaceOnUse" x1="3.629" y1="19.258" x2="3.629" y2="-.22"><stop offset="0" stop-color="#fff200"/><stop offset="1" stop-color="#f15a29"/></linearGradient><path d="M4.31 15.69a8.2 8.2 0 0 1-.541-.598l-1.387 1.387c.339.399.709.77 1.107 1.111l1.386-1.386a8.792 8.792 0 0 1-.565-.514z" fill="url(#d)"/><linearGradient id="e" gradientUnits="userSpaceOnUse" x1="6.333" y1="19.258" x2="6.333" y2="-.22"><stop offset="0" stop-color="#fff200"/><stop offset="1" stop-color="#f15a29"/></linearGradient><path d="M5.805 5.744a5.86 5.86 0 0 0-1.516 2.637l4.087-4.087c-.988.27-1.854.733-2.571 1.45z" fill="url(#e)"/><linearGradient id="f" gradientUnits="userSpaceOnUse" x1="11.084" y1="19.258" x2="11.084" y2="-.22"><stop offset="0" stop-color="#fff200"/><stop offset="1" stop-color="#f15a29"/></linearGradient><path d="M14.68 6.984l-7.935 7.935c.468.321.965.565 1.478.739l7.201-7.201a5.932 5.932 0 0 0-.744-1.473z" fill="url(#f)"/><linearGradient id="g" gradientUnits="userSpaceOnUse" x1="7.535" y1="19.258" x2="7.535" y2="-.22"><stop offset="0" stop-color="#fff200"/><stop offset="1" stop-color="#f15a29"/></linearGradient><path d="M8.653 10.208l-3.344 3.344c.162.212.333.419.527.612.184.184.377.348.574.504l3.351-3.351-1.108-1.109z" fill="url(#g)"/><linearGradient id="h" gradientUnits="userSpaceOnUse" x1="4.934" y1="19.258" x2="4.934" y2="-.22"><stop offset="0" stop-color="#fff200"/><stop offset="1" stop-color="#f15a29"/></linearGradient><path d="M4.28 4.218c.886-.886 1.999-1.523 3.263-1.894L9.867 0a10.03 10.03 0 0 0-2.592.375l-6.9 6.9A10.03 10.03 0 0 0 0 9.867l2.272-2.272A7.97 7.97 0 0 1 4.28 4.218z" fill="url(#h)"/><linearGradient id="i" gradientUnits="userSpaceOnUse" x1="2.378" y1="19.258" x2="2.378" y2="-.22"><stop offset="0" stop-color="#fff200"/><stop offset="1" stop-color="#f15a29"/></linearGradient><path d="M2.696 13.362l-1.46 1.46c.259.469.555.914.883 1.334l1.401-1.401a8.032 8.032 0 0 1-.824-1.393z" fill="url(#i)"/><linearGradient id="j" gradientUnits="userSpaceOnUse" x1="1.462" y1="19.258" x2="1.462" y2="-.22"><stop offset="0" stop-color="#fff200"/><stop offset="1" stop-color="#f15a29"/></linearGradient><path d="M2.042 11.213L.41 12.846c.164.552.373 1.084.625 1.592l1.479-1.479a8.177 8.177 0 0 1-.472-1.746z" fill="url(#j)"/><linearGradient id="k" gradientUnits="userSpaceOnUse" x1="10.255" y1="19.258" x2="10.255" y2="-.22"><stop offset="0" stop-color="#fff200"/><stop offset="1" stop-color="#f15a29"/></linearGradient><path d="M5.062 13.214L16.156 2.119a10.043 10.043 0 0 0-1.334-.884l-10.47 10.47c.164.526.399 1.035.71 1.509z" fill="url(#k)"/><linearGradient id="l" gradientUnits="userSpaceOnUse" x1="1.045" y1="19.258" x2="1.045" y2="-.22"><stop offset="0" stop-color="#fff200"/><stop offset="1" stop-color="#f15a29"/></linearGradient><path d="M2.082 8.371L.008 10.445c.029.666.124 1.314.277 1.94L1.97 10.7a8.233 8.233 0 0 1 .112-2.329z" fill="url(#l)"/><linearGradient id="m" gradientUnits="userSpaceOnUse" x1="10.352" y1="19.258" x2="10.352" y2="-.22"><stop offset="0" stop-color="#fff200"/><stop offset="1" stop-color="#f15a29"/></linearGradient><path d="M9.97 1.945l.005.75 2.41-2.41a9.992 9.992 0 0 0-1.94-.277L8.319 2.134c.53-.107 1.082-.17 1.651-.189z" fill="url(#m)"/><linearGradient id="n" gradientUnits="userSpaceOnUse" x1="18.884" y1="19.258" x2="18.884" y2="-.22"><stop offset="0" stop-color="#fff200"/><stop offset="1" stop-color="#f15a29"/></linearGradient><path d="M17.78 11.707l2.21-2.21a9.984 9.984 0 0 0-.287-1.931L17.859 9.41a7.928 7.928 0 0 1-.079 2.297z" fill="url(#n)"/><linearGradient id="o" gradientUnits="userSpaceOnUse" x1="18.429" y1="19.258" x2="18.429" y2="-.22"><stop offset="0" stop-color="#fff200"/><stop offset="1" stop-color="#f15a29"/></linearGradient><path d="M17.79 8.894l1.786-1.786a9.88 9.88 0 0 0-.632-1.585l-1.661 1.661c.232.556.405 1.128.507 1.71z" fill="url(#o)"/><linearGradient id="p" gradientUnits="userSpaceOnUse" x1="16.256" y1="19.258" x2="16.256" y2="-.22"><stop offset="0" stop-color="#fff200"/><stop offset="1" stop-color="#f15a29"/></linearGradient><path d="M15.706 4.722c.106.114.199.235.297.354l1.587-1.587a10.098 10.098 0 0 0-1.111-1.107l-1.556 1.556.783.784z" fill="url(#p)"/><linearGradient id="q" gradientUnits="userSpaceOnUse" x1="17.504" y1="19.258" x2="17.504" y2="-.22"><stop offset="0" stop-color="#fff200"/><stop offset="1" stop-color="#f15a29"/></linearGradient><path d="M17.104 6.777l1.638-1.638a9.952 9.952 0 0 0-.888-1.329l-1.588 1.588c.329.439.608.901.838 1.379z" fill="url(#q)"/><linearGradient id="r" gradientUnits="userSpaceOnUse" x1="16.437" y1="19.258" x2="16.437" y2="-.22"><stop offset="0" stop-color="#fff200"/><stop offset="1" stop-color="#f15a29"/></linearGradient><path d="M19.368 13.507l-5.861 5.861a10.03 10.03 0 0 0 5.861-5.861z" fill="url(#r)"/><linearGradient id="s" gradientUnits="userSpaceOnUse" x1="9.263" y1="19.258" x2="9.263" y2="-.22"><stop offset="0" stop-color="#fff200"/><stop offset="1" stop-color="#f15a29"/></linearGradient><path d="M9.983 4.025c-.296.021-.58.06-.859.107l-4.98 4.98a6.005 6.005 0 0 0 .088 2.129L14.438 1.035A9.875 9.875 0 0 0 12.846.41L9.978 3.277l.005.748z" fill="url(#s)"/><linearGradient id="t" gradientUnits="userSpaceOnUse" x1="12.206" y1="19.258" x2="12.206" y2="-.22"><stop offset="0" stop-color="#fff200"/><stop offset="1" stop-color="#f15a29"/></linearGradient><path d="M15.558 8.908L8.676 15.79a5.744 5.744 0 0 0 2.082.136l4.941-4.941a5.755 5.755 0 0 0-.141-2.077z" fill="url(#t)"/><linearGradient id="u" gradientUnits="userSpaceOnUse" x1="13.524" y1="19.258" x2="13.524" y2="-.22"><stop offset="0" stop-color="#fff200"/><stop offset="1" stop-color="#f15a29"/></linearGradient><path d="M15.572 11.698l-4.095 4.095a5.657 5.657 0 0 0 2.612-1.491 5.595 5.595 0 0 0 1.483-2.604z" fill="url(#u)"/><linearGradient id="v" gradientUnits="userSpaceOnUse" x1="15.036" y1="19.258" x2="15.036" y2="-.22"><stop offset="0" stop-color="#fff200"/><stop offset="1" stop-color="#f15a29"/></linearGradient><path d="M20 10.072l-2.4 2.4a7.795 7.795 0 0 1-1.986 3.355 7.815 7.815 0 0 1-3.374 2.005L10.072 20a9.997 9.997 0 0 0 2.571-.354l7.003-7.003c.224-.82.348-1.681.354-2.571z" fill="url(#v)"/><linearGradient id="w" gradientUnits="userSpaceOnUse" x1="3.532" y1="19.258" x2="3.532" y2="-.22"><stop offset="0" stop-color="#fff200"/><stop offset="1" stop-color="#f15a29"/></linearGradient><path d="M.668 6.397L6.397.668A10.026 10.026 0 0 0 .668 6.397z" fill="url(#w)"/></svg>