<?xml version="1.0" encoding="iso-8859-1"?>
<!-- Generator: Adobe Illustrator 19.1.0, SVG Export Plug-In . SVG Version: 6.00 Build 0)  -->
<svg version="1.1" id="Layer_1" xmlns="http://www.w3.org/2000/svg" xmlns:xlink="http://www.w3.org/1999/xlink" x="0px" y="0px"
	 width="440.583px" height="123px" viewBox="0 0 440.583 123" style="enable-background:new 0 0 440.583 123;" xml:space="preserve"
	>
<path style="fill:#666766;" d="M125.562,41.414h4.97l8.434,29.143h0.15l9.715-29.143h4.292l10.317,29.143h0.15l8.208-29.143h4.519
	l-10.242,34.791h-4.668l-10.392-28.465h-0.15l-9.714,28.465h-4.669L125.562,41.414z"/>
<path style="fill:#666766;" d="M177.501,58.809c0-2.66,0.452-5.107,1.355-7.342c0.904-2.233,2.158-4.166,3.765-5.798
	c1.606-1.631,3.539-2.9,5.799-3.804c2.259-0.903,4.718-1.355,7.38-1.355c2.66,0,5.108,0.453,7.343,1.355
	c2.233,0.904,4.166,2.173,5.798,3.804c1.631,1.632,2.899,3.565,3.803,5.798c0.903,2.235,1.355,4.682,1.355,7.342
	c0,2.662-0.452,5.109-1.355,7.343c-0.904,2.234-2.172,4.167-3.803,5.798c-1.632,1.632-3.565,2.9-5.798,3.804
	c-2.235,0.903-4.682,1.355-7.343,1.355c-2.661,0-5.12-0.453-7.38-1.355c-2.259-0.904-4.192-2.172-5.799-3.804
	c-1.607-1.631-2.861-3.564-3.765-5.798C177.953,63.918,177.501,61.471,177.501,58.809z M182.019,58.809
	c0,1.958,0.313,3.804,0.942,5.535c0.627,1.733,1.543,3.238,2.748,4.519s2.661,2.297,4.368,3.049c1.706,0.753,3.615,1.13,5.723,1.13
	c2.109,0,4.016-0.376,5.723-1.13c1.706-0.752,3.163-1.769,4.367-3.049s2.12-2.786,2.749-4.519c0.627-1.732,0.941-3.577,0.941-5.535
	c0-1.957-0.314-3.803-0.941-5.534c-0.628-1.733-1.544-3.238-2.749-4.519c-1.205-1.28-2.661-2.297-4.367-3.049
	c-1.707-0.753-3.615-1.13-5.723-1.13c-2.108,0-4.017,0.376-5.723,1.13c-1.707,0.752-3.163,1.769-4.368,3.049
	c-1.205,1.28-2.121,2.786-2.748,4.519C182.332,55.006,182.019,56.851,182.019,58.809z"/>
<path style="fill:#666766;" d="M219.93,51.203c0-0.652-0.026-1.443-0.075-2.372c-0.051-0.928-0.089-1.87-0.113-2.824
	c-0.026-0.954-0.064-1.845-0.113-2.673c-0.051-0.829-0.076-1.469-0.076-1.921h4.519c0.049,1.306,0.087,2.56,0.113,3.765
	c0.025,1.205,0.087,1.984,0.188,2.334c1.155-2.058,2.636-3.74,4.443-5.045c1.807-1.306,4.016-1.958,6.627-1.958
	c0.452,0,0.891,0.038,1.318,0.113c0.426,0.075,0.866,0.164,1.318,0.264l-0.527,4.442c-0.602-0.2-1.18-0.301-1.732-0.301
	c-1.958,0-3.653,0.314-5.083,0.942c-1.431,0.628-2.611,1.494-3.539,2.598c-0.929,1.105-1.619,2.398-2.071,3.878
	c-0.452,1.481-0.678,3.076-0.678,4.782v18.977h-4.519V51.203z"/>
<path style="fill:#666766;" d="M298.64,22.889h19.805c2.76,0,5.372,0.251,7.832,0.752c2.46,0.502,4.605,1.369,6.439,2.598
	c1.832,1.231,3.288,2.888,4.367,4.97c1.079,2.084,1.619,4.707,1.619,7.87c0,3.113-0.502,5.723-1.506,7.832
	c-1.005,2.108-2.385,3.791-4.142,5.045c-1.758,1.256-3.84,2.146-6.25,2.673c-2.41,0.527-5.021,0.791-7.832,0.791h-8.585v20.784
	H298.64V22.889z M310.388,45.48h7.832c1.054,0,2.071-0.1,3.05-0.301c0.979-0.2,1.857-0.539,2.635-1.017
	c0.778-0.476,1.405-1.13,1.883-1.957c0.477-0.829,0.716-1.87,0.716-3.126c0-1.355-0.314-2.447-0.942-3.276
	c-0.628-0.828-1.431-1.468-2.41-1.92c-0.979-0.453-2.071-0.74-3.276-0.866c-1.205-0.125-2.36-0.188-3.464-0.188h-6.024V45.48z"/>
<path style="fill:#666766;" d="M343.048,39.606h11.296v36.599h-11.296V39.606z"/>
<path style="fill:#666766;" d="M361.145,39.606h10.844v4.971h0.15c0.351-0.703,0.853-1.405,1.506-2.109
	c0.652-0.703,1.431-1.33,2.334-1.883c0.904-0.551,1.932-1.004,3.088-1.355c1.154-0.351,2.41-0.527,3.765-0.527
	c2.862,0,5.17,0.439,6.928,1.318c1.757,0.878,3.126,2.097,4.104,3.652c0.979,1.557,1.644,3.389,1.996,5.497
	c0.35,2.109,0.527,4.394,0.527,6.853v20.182h-11.295V58.282c0-1.054-0.038-2.146-0.113-3.276c-0.075-1.13-0.301-2.171-0.678-3.124
	c-0.376-0.954-0.954-1.733-1.732-2.335c-0.779-0.603-1.895-0.904-3.351-0.904c-1.457,0-2.636,0.263-3.539,0.791
	c-0.904,0.527-1.594,1.23-2.071,2.108c-0.477,0.88-0.791,1.871-0.941,2.975c-0.15,1.105-0.226,2.259-0.226,3.464v18.223h-11.296
	V39.606z"/>
<path style="fill:#666766;" d="M438.998,73.116c0,6.928-1.745,12.187-5.234,15.777c-3.49,3.588-8.799,5.384-15.927,5.384
	c-3.264,0-6.476-0.365-9.639-1.092c-3.163-0.728-6.075-2.146-8.735-4.254l6.25-9.338c1.757,1.455,3.602,2.61,5.535,3.464
	c1.932,0.853,4.054,1.28,6.363,1.28c3.464,0,6.012-0.842,7.644-2.523c1.631-1.683,2.447-3.829,2.447-6.439v-3.539h-0.15
	c-1.306,1.758-2.925,3.001-4.857,3.727c-1.933,0.728-3.753,1.092-5.46,1.092c-2.711,0-5.171-0.464-7.38-1.393
	c-2.209-0.928-4.104-2.233-5.685-3.916c-1.582-1.682-2.799-3.677-3.652-5.987c-0.855-2.309-1.281-4.844-1.281-7.605
	c0-2.41,0.388-4.77,1.167-7.079c0.778-2.309,1.883-4.343,3.314-6.1c1.431-1.757,3.174-3.175,5.234-4.255
	c2.058-1.079,4.392-1.619,7.003-1.619c1.606,0,3.075,0.176,4.406,0.527c1.329,0.352,2.523,0.804,3.577,1.355
	c1.054,0.553,1.958,1.167,2.711,1.845c0.753,0.677,1.355,1.343,1.807,1.995h0.15v-4.819h10.392V73.116z M410.533,57.68
	c0,1.205,0.226,2.347,0.678,3.425c0.452,1.081,1.092,2.034,1.921,2.862c0.828,0.828,1.781,1.494,2.861,1.995
	c1.079,0.503,2.271,0.753,3.577,0.753c1.255,0,2.435-0.25,3.539-0.753c1.104-0.501,2.071-1.167,2.899-1.995
	c0.828-0.829,1.469-1.781,1.92-2.862c0.452-1.079,0.678-2.221,0.678-3.425s-0.226-2.347-0.678-3.427
	c-0.451-1.08-1.092-2.034-1.92-2.862c-0.828-0.828-1.796-1.493-2.899-1.995c-1.105-0.501-2.285-0.753-3.539-0.753
	c-1.306,0-2.498,0.252-3.577,0.753c-1.08,0.502-2.033,1.167-2.861,1.995c-0.829,0.829-1.469,1.782-1.921,2.862
	C410.759,55.333,410.533,56.475,410.533,57.68z"/>
<path style="fill:none;" d="M72.323,55.769c0,0,0-7.256,3.628-7.256c3.628,0,7.256-7.256,14.513,0c0,0,4.193-2.795,10.126-3.479
	c-1.861-4.357-4.412-8.35-7.516-11.839C92.422,33.663,91.569,34,90.464,34c-3.628,0,3.628,7.256,0,7.256
	c-3.628,0-3.628-3.628-7.256-3.628c-3.628,0-3.628,3.628-7.256,7.256c-3.628,3.628,0,0-3.628-3.628
	c-3.628-3.628,7.256,0,3.628-3.628C72.323,34,79.579,34,79.579,30.372c0-2.846,4.464-3.46,6.389-3.592
	c-2.094-1.51-4.327-2.838-6.389-3.665c3.628,3.628-3.628,7.257-7.256,7.257c-3.408,0-0.414-6.403-0.038-10.187
	c-3.739-1.046-7.681-1.605-11.754-1.605c-2.202,0-4.367,0.163-6.481,0.479c-0.453,0.986-0.775,2.067-0.775,3.149
	c0,3.628-3.628-3.628-7.256,3.628c-3.628,7.256,0,0,0,7.256c0,3.628-5.251,1.003-3.628,1.814c3.628,1.814,3.628,1.814,0,5.442
	c0,0-7.256-3.628-7.256,0c0,3.628-3.628,3.628-7.256,3.628c-3.628,0,0,7.256-3.628,7.256c-2.79,0-1.29-4.29-3.745-6.272
	c-0.934,2.175-1.695,4.441-2.267,6.782c2.445,2.191,2.855,10.846,6.013,14.004c3.628-3.628,3.628,0,7.256,0
	c3.628,0,3.628,0,5.442,3.628c3.628,0,5.442,3.628,9.07,7.256c3.628,3.628,10.884,3.628,10.884,7.256c0,3.628-3.628,0-3.628,7.256
	c0,3.628,0,3.628-3.628,3.628c-2.284,0-4.569,4.315-5.948,7.512c5.178,2.172,10.865,3.373,16.832,3.373
	c12.186,0,23.202-5.006,31.105-13.074l-2.08-4.16c0,0,4.535-7.256,0.907-10.884c-3.628-3.628-3.628-7.257-3.628-7.257
	s-7.256,7.257-10.884,3.628c-3.628-3.628-3.628,0-7.256-7.256C65.067,59.397,72.323,55.769,72.323,55.769z"/>
<path style="fill:none;" d="M22.436,75.724c0-2.912-1.168-5.239,0.245-7.92c-5.119-5.141-2.06-2.354-2.06-5.686
	c0-1.727-1.644-3.454-3.368-4.79c-0.172,1.573-0.261,3.171-0.261,4.79c0,12.806,5.529,24.32,14.329,32.287l-3.445-6.89
	C24.25,87.515,22.436,79.352,22.436,75.724z"/>
<path style="fill:#666766;" d="M60.531,14.345c-18.696,0-34.918,10.796-42.76,26.482c-2.071,4.143-3.558,8.628-4.351,13.345
	c-0.435,2.585-0.661,5.239-0.661,7.946c0,26.341,21.431,47.772,47.772,47.772c26.342,0,47.773-21.431,47.773-47.772
	C108.304,35.776,86.873,14.345,60.531,14.345z M16.994,62.118c0-1.619,0.088-3.217,0.261-4.79c1.723,1.336,3.368,3.063,3.368,4.79
	c0,3.332-3.059,0.544,2.06,5.686c-1.414,2.681-0.245,5.008-0.245,7.92c0,3.628,1.814,11.791,5.442,11.791l3.445,6.89
	C22.523,86.438,16.994,74.924,16.994,62.118z M68.695,66.653c3.628,7.256,3.628,3.628,7.256,7.256
	c3.628,3.628,10.884-3.628,10.884-3.628s0,3.628,3.628,7.257c3.628,3.628-0.907,10.884-0.907,10.884l2.08,4.16
	c-7.902,8.068-18.919,13.074-31.105,13.074c-5.967,0-11.654-1.201-16.832-3.373c1.379-3.196,3.663-7.512,5.948-7.512
	c3.628,0,3.628,0,3.628-3.628c0-7.256,3.628-3.628,3.628-7.256c0-3.628-7.256-3.628-10.884-7.256
	c-3.628-3.628-5.442-7.256-9.07-7.256c-1.814-3.628-1.814-3.628-5.442-3.628c-3.628,0-3.628-3.628-7.256,0
	c-3.158-3.158-3.567-11.813-6.013-14.004c0.572-2.341,1.334-4.607,2.267-6.782c2.456,1.983,0.956,6.272,3.745,6.272
	c3.628,0,0-7.256,3.628-7.256c3.628,0,7.256,0,7.256-3.628c0-3.628,7.256,0,7.256,0c3.628-3.628,3.628-3.628,0-5.442
	c-1.623-0.811,3.628,1.814,3.628-1.814c0-7.256-3.628,0,0-7.256c3.628-7.256,7.256,0,7.256-3.628c0-1.082,0.323-2.164,0.775-3.149
	c2.115-0.316,4.279-0.479,6.481-0.479c4.073,0,8.015,0.559,11.754,1.605c-0.376,3.784-3.37,10.187,0.038,10.187
	c3.628,0,10.884-3.628,7.256-7.257c2.062,0.826,4.295,2.155,6.389,3.665c-1.926,0.132-6.389,0.746-6.389,3.592
	c0,3.628-7.256,3.628-3.628,7.256c3.628,3.628-7.256,0-3.628,3.628c3.628,3.628,0,7.256,3.628,3.628
	c3.628-3.628,3.628-7.256,7.256-7.256c3.628,0,3.628,3.628,7.256,3.628c3.628,0-3.628-7.256,0-7.256c1.106,0,1.959-0.337,2.61-0.805
	c3.104,3.49,5.655,7.482,7.516,11.839c-5.933,0.683-10.126,3.479-10.126,3.479c-7.256-7.256-10.884,0-14.513,0
	c-3.628,0-3.628,7.256-3.628,7.256S65.067,59.397,68.695,66.653z"/>
<path style="fill:none;" d="M34.586,15.338c3.82,0,6.928-3.108,6.928-6.928c0-3.819-3.108-6.927-6.928-6.927
	s-6.928,3.108-6.928,6.927C27.659,12.23,30.767,15.338,34.586,15.338z"/>
<path style="fill:#666766;" d="M60.542,1.566c-0.313,0-0.566,0.253-0.566,0.566s0.253,0.566,0.566,0.566
	c32.758,0,59.409,26.651,59.409,59.409S93.3,121.517,60.542,121.517S1.133,94.866,1.133,62.108c0-19.987,9.933-38.447,26.582-49.506
	c1.418,2.316,3.964,3.869,6.872,3.869c4.444,0,8.061-3.616,8.061-8.061c0-4.444-3.616-8.06-8.061-8.06s-8.061,3.616-8.061,8.06
	c0,1.13,0.236,2.205,0.657,3.182C10.158,22.854,0,41.702,0,62.108c0,33.383,27.159,60.542,60.542,60.542
	s60.542-27.159,60.542-60.542S93.925,1.566,60.542,1.566z M34.586,1.483c3.82,0,6.928,3.108,6.928,6.927
	c0,3.82-3.108,6.928-6.928,6.928s-6.928-3.108-6.928-6.928C27.659,4.591,30.767,1.483,34.586,1.483z"/>
<circle style="fill:#666766;" cx="34.587" cy="8.41" r="5.171"/>
<rect x="243.561" y="22.911" style="fill:#666766;" width="4.519" height="53.293"/>
<path style="fill:#666766;" d="M285.914,47.513h-0.15c-0.704-1.205-1.582-2.246-2.636-3.126c-1.054-0.877-2.197-1.605-3.427-2.183
	c-1.23-0.576-2.523-1.005-3.878-1.28c-1.355-0.275-2.686-0.415-3.991-0.415c-2.661,0-5.12,0.453-7.38,1.355
	c-2.259,0.904-4.192,2.173-5.799,3.804c-1.607,1.632-2.861,3.565-3.765,5.798c-0.903,2.235-1.355,4.682-1.355,7.342
	c0,2.662,0.452,5.109,1.355,7.343c0.904,2.234,2.158,4.167,3.765,5.798c1.606,1.632,3.539,2.9,5.799,3.804
	c2.259,0.903,4.718,1.355,7.38,1.355c1.305,0,2.636-0.139,3.991-0.415c1.355-0.277,2.648-0.701,3.878-1.28
	c1.23-0.576,2.372-1.304,3.427-2.183c1.054-0.878,1.932-1.921,2.636-3.126h0.15v6.1h4.518V22.911h-4.518V47.513z M285.237,64.344
	c-0.753,1.733-1.783,3.238-3.087,4.519c-1.306,1.28-2.837,2.297-4.594,3.049c-1.758,0.753-3.665,1.13-5.723,1.13
	c-2.108,0-4.017-0.376-5.723-1.13c-1.707-0.752-3.163-1.769-4.368-3.049s-2.121-2.786-2.748-4.519
	c-0.628-1.732-0.942-3.577-0.942-5.535c0-1.957,0.313-3.803,0.942-5.534c0.627-1.733,1.543-3.238,2.748-4.519
	c1.205-1.28,2.661-2.297,4.368-3.049c1.706-0.753,3.615-1.13,5.723-1.13c2.058,0,3.965,0.376,5.723,1.13
	c1.756,0.752,3.288,1.769,4.594,3.049c1.304,1.28,2.334,2.786,3.087,4.519c0.753,1.732,1.13,3.577,1.13,5.534
	C286.366,60.767,285.99,62.612,285.237,64.344z"/>
<line style="fill:#666766;" x1="126.89" y1="42.851" x2="126.89" y2="42.096"/>
<path style="fill:#666766;" d="M348.639,36.045c-4.444,0-8.061-3.616-8.061-8.061s3.616-8.061,8.061-8.061
	c4.445,0,8.061,3.616,8.061,8.061S353.084,36.045,348.639,36.045z M348.639,21.056c-3.82,0-6.928,3.108-6.928,6.928
	s3.108,6.928,6.928,6.928c3.82,0,6.928-3.108,6.928-6.928S352.46,21.056,348.639,21.056z"/>
<circle style="fill:#666766;" cx="348.64" cy="27.984" r="5.171"/>
</svg>
