<?xml version="1.0" encoding="utf-8"?>
<!-- Generator: Adobe Illustrator 19.1.0, SVG Export Plug-In . SVG Version: 6.00 Build 0)  -->
<svg version="1.1" id="Layer_1" xmlns="http://www.w3.org/2000/svg" xmlns:xlink="http://www.w3.org/1999/xlink" x="0px" y="0px"
	 width="150" height="150" viewBox="0 0 300 300" style="enable-background:new 0 0 300 300;" xml:space="preserve">
<style type="text/css">
	.st0{fill:#666766;}
</style>
<path class="st0" d="M150,35.4c-45.4,0-84.9,26.2-103.9,64.4c-5,10.1-8.6,21-10.6,32.4c-1.1,6.3-1.6,12.7-1.6,19.3
	c0,64,52.1,116.1,116.1,116.1c64,0,116.1-52.1,116.1-116.1C266.1,87.5,214,35.4,150,35.4z M44.2,151.5c0-3.9,0.2-7.8,0.6-11.6
	c4.2,3.2,8.2,7.4,8.2,11.6c0,8.1-7.4,1.3,5,13.8c-3.4,6.5-0.6,12.2-0.6,19.3c0,8.8,4.4,28.7,13.2,28.7L79,230
	C57.6,210.6,44.2,182.6,44.2,151.5z M169.8,162.5c8.8,17.6,8.8,8.8,17.6,17.6c8.8,8.8,26.5-8.8,26.5-8.8s0,8.8,8.8,17.6
	c8.8,8.8-2.2,26.5-2.2,26.5l5.1,10.1c-19.2,19.6-46,31.8-75.6,31.8c-14.5,0-28.3-2.9-40.9-8.2c3.4-7.8,8.9-18.3,14.5-18.3
	c8.8,0,8.8,0,8.8-8.8c0-17.6,8.8-8.8,8.8-17.6c0-8.8-17.6-8.8-26.5-17.6c-8.8-8.8-13.2-17.6-22-17.6c-4.4-8.8-4.4-8.8-13.2-8.8
	c-8.8,0-8.8-8.8-17.6,0c-7.7-7.7-8.7-28.7-14.6-34c1.4-5.7,3.2-11.2,5.5-16.5c6,4.8,2.3,15.2,9.1,15.2c8.8,0,0-17.6,8.8-17.6
	c8.8,0,17.6,0,17.6-8.8c0-8.8,17.6,0,17.6,0c8.8-8.8,8.8-8.8,0-13.2c-3.9-2,8.8,4.4,8.8-4.4c0-17.6-8.8,0,0-17.6
	c8.8-17.6,17.6,0,17.6-8.8c0-2.6,0.8-5.3,1.9-7.7c5.1-0.8,10.4-1.2,15.8-1.2c9.9,0,19.5,1.4,28.6,3.9c-0.9,9.2-8.2,24.8,0.1,24.8
	c8.8,0,26.5-8.8,17.6-17.6c5,2,10.4,5.2,15.5,8.9c-4.7,0.3-15.5,1.8-15.5,8.7c0,8.8-17.6,8.8-8.8,17.6c8.8,8.8-17.6,0-8.8,8.8
	c8.8,8.8,0,17.6,8.8,8.8c8.8-8.8,8.8-17.6,17.6-17.6c8.8,0,8.8,8.8,17.6,8.8c8.8,0-8.8-17.6,0-17.6c2.7,0,4.8-0.8,6.3-2
	c7.5,8.5,13.7,18.2,18.3,28.8c-14.4,1.7-24.6,8.5-24.6,8.5c-17.6-17.6-26.5,0-35.3,0c-8.8,0-8.8,17.6-8.8,17.6
	S161,144.9,169.8,162.5z"/>
</svg>
